<svg width="111" height="105" viewBox="0 0 111 105" fill="none" xmlns="http://www.w3.org/2000/svg">
<path d="M81.6795 26.5955L72.3746 24.3036L75.0422 33.5079L81.6795 26.5955ZM34.2589 41.2034L74.7365 29.4719L74.2745 27.8776L33.7968 39.6091L34.2589 41.2034Z" fill="black"/>
<rect x="71.7917" y="45.9062" width="21.6924" height="27.1065" transform="rotate(166.212 71.7917 45.9062)" fill="white"/>
<path d="M59.0853 42.8889V41.7929H57.9893V42.8889H59.0853ZM60.1813 41.7929V40.6969H59.0853V41.7929H60.1813ZM60.1813 40.6969V39.6009H59.0853V40.6969H60.1813ZM60.1813 39.6009V38.5049H59.0853V39.6009H60.1813ZM60.1813 38.5049V37.4089H59.0853V38.5049H60.1813ZM60.1813 37.4089V36.3128H59.0853V37.4089H60.1813ZM60.1813 42.8889V41.7929H59.0853V42.8889H60.1813ZM56.8933 42.8889V41.7929H55.7973V42.8889H56.8933ZM56.8933 41.7929V40.6969H55.7973V41.7929H56.8933ZM56.8933 40.6969V39.6009H55.7973V40.6969H56.8933ZM56.8933 39.6009V38.5049H55.7973V39.6009H56.8933ZM56.8933 38.5049V37.4089H55.7973V38.5049H56.8933ZM57.9893 37.4089V36.3128H56.8933V37.4089H57.9893ZM59.0853 37.4089V36.3128H57.9893V37.4089H59.0853ZM59.0853 38.5049V37.4089H57.9893V38.5049H59.0853ZM59.0853 39.6009V38.5049H57.9893V39.6009H59.0853ZM59.0853 40.6969V39.6009H57.9893V40.6969H59.0853ZM59.0853 41.7929V40.6969H57.9893V41.7929H59.0853ZM57.9893 42.8889V41.7929H56.8933V42.8889H57.9893ZM56.8933 37.4089V36.3128H55.7973V37.4089H56.8933ZM57.9893 38.5049V37.4089H56.8933V38.5049H57.9893ZM57.9893 39.6009V38.5049H56.8933V39.6009H57.9893ZM57.9893 40.6969V39.6009H56.8933V40.6969H57.9893ZM57.9893 41.7929V40.6969H56.8933V41.7929H57.9893ZM50.3172 36.3128V35.2168H49.2212V36.3128H50.3172ZM51.4133 36.3128V35.2168H50.3172V36.3128H51.4133ZM52.5093 36.3128V35.2168H51.4133V36.3128H52.5093ZM53.6053 36.3128V35.2168H52.5093V36.3128H53.6053ZM54.7013 36.3128V35.2168H53.6053V36.3128H54.7013ZM55.7973 36.3128V35.2168H54.7013V36.3128H55.7973ZM56.8933 36.3128V35.2168H55.7973V36.3128H56.8933ZM57.9893 36.3128V35.2168H56.8933V36.3128H57.9893ZM59.0853 36.3128V35.2168H57.9893V36.3128H59.0853ZM60.1813 36.3128V35.2168H59.0853V36.3128H60.1813ZM61.2773 36.3128V35.2168H60.1813V36.3128H61.2773ZM62.3733 36.3128V35.2168H61.2773V36.3128H62.3733ZM63.4693 36.3128V35.2168H62.3733V36.3128H63.4693ZM64.5653 36.3128V35.2168H63.4693V36.3128H64.5653ZM65.6613 36.3128V35.2168H64.5653V36.3128H65.6613ZM66.7574 36.3128V35.2168H65.6613V36.3128H66.7574ZM66.7574 35.2168V34.1208H65.6613V35.2168H66.7574ZM66.7574 34.1208V33.0248H65.6613V34.1208H66.7574ZM66.7574 33.0248V31.9288H65.6613V33.0248H66.7574ZM65.6613 33.0248V31.9288H64.5653V33.0248H65.6613ZM64.5653 33.0248V31.9288H63.4693V33.0248H64.5653ZM64.5653 34.1208V33.0248H63.4693V34.1208H64.5653ZM63.4693 34.1208V33.0248H62.3733V34.1208H63.4693ZM62.3733 34.1208V33.0248H61.2773V34.1208H62.3733ZM61.2773 34.1208V33.0248H60.1813V34.1208H61.2773ZM60.1813 34.1208V33.0248H59.0853V34.1208H60.1813ZM59.0853 34.1208V33.0248H57.9893V34.1208H59.0853ZM57.9893 34.1208V33.0248H56.8933V34.1208H57.9893ZM56.8933 34.1208V33.0248H55.7973V34.1208H56.8933ZM56.8933 35.2168V34.1208H55.7973V35.2168H56.8933ZM57.9893 35.2168V34.1208H56.8933V35.2168H57.9893ZM60.1813 35.2168V34.1208H59.0853V35.2168H60.1813ZM61.2773 35.2168V34.1208H60.1813V35.2168H61.2773ZM63.4693 35.2168V34.1208H62.3733V35.2168H63.4693ZM64.5653 35.2168V34.1208H63.4693V35.2168H64.5653ZM65.6613 35.2168V34.1208H64.5653V35.2168H65.6613ZM65.6613 34.1208V33.0248H64.5653V34.1208H65.6613ZM62.3733 35.2168V34.1208H61.2773V35.2168H62.3733ZM59.0853 35.2168V34.1208H57.9893V35.2168H59.0853ZM55.7973 35.2168V34.1208H54.7013V35.2168H55.7973ZM54.7013 35.2168V34.1208H53.6053V35.2168H54.7013ZM53.6053 35.2168V34.1208H52.5093V35.2168H53.6053ZM53.6053 34.1208V33.0248H52.5093V34.1208H53.6053ZM52.5093 34.1208V33.0248H51.4133V34.1208H52.5093ZM51.4133 34.1208V33.0248H50.3172V34.1208H51.4133ZM50.3172 34.1208V33.0248H49.2212V34.1208H50.3172ZM50.3172 35.2168V34.1208H49.2212V35.2168H50.3172ZM51.4133 35.2168V34.1208H50.3172V35.2168H51.4133ZM52.5093 35.2168V34.1208H51.4133V35.2168H52.5093ZM50.3172 33.0248V31.9288H49.2212V33.0248H50.3172ZM51.4133 33.0248V31.9288H50.3172V33.0248H51.4133ZM52.5093 33.0248V31.9288H51.4133V33.0248H52.5093ZM53.6053 33.0248V31.9288H52.5093V33.0248H53.6053ZM54.7013 33.0248V31.9288H53.6053V33.0248H54.7013ZM55.7973 33.0248V31.9288H54.7013V33.0248H55.7973ZM56.8933 33.0248V31.9288H55.7973V33.0248H56.8933ZM57.9893 33.0248V31.9288H56.8933V33.0248H57.9893ZM55.7973 34.1208V33.0248H54.7013V34.1208H55.7973ZM54.7013 34.1208V33.0248H53.6053V34.1208H54.7013ZM63.4693 33.0248V31.9288H62.3733V33.0248H63.4693ZM62.3733 33.0248V31.9288H61.2773V33.0248H62.3733ZM60.1813 31.9288V30.8328H59.0853V31.9288H60.1813ZM59.0853 31.9288V30.8328H57.9893V31.9288H59.0853ZM59.0853 33.0248V31.9288H57.9893V33.0248H59.0853ZM60.1813 33.0248V31.9288H59.0853V33.0248H60.1813ZM61.2773 33.0248V31.9288H60.1813V33.0248H61.2773ZM60.1813 27.5448V26.4488H59.0853V27.5448H60.1813ZM60.1813 28.6408V27.5448H59.0853V28.6408H60.1813ZM60.1813 29.7368V28.6408H59.0853V29.7368H60.1813ZM60.1813 30.8328V29.7368H59.0853V30.8328H60.1813ZM60.1813 26.4488V25.3528H59.0853V26.4488H60.1813ZM59.0853 26.4488V25.3528H57.9893V26.4488H59.0853ZM57.9893 26.4488V25.3528H56.8933V26.4488H57.9893ZM56.8933 26.4488V25.3528H55.7973V26.4488H56.8933ZM56.8933 27.5448V26.4488H55.7973V27.5448H56.8933ZM56.8933 28.6408V27.5448H55.7973V28.6408H56.8933ZM56.8933 29.7368V28.6408H55.7973V29.7368H56.8933ZM56.8933 30.8328V29.7368H55.7973V30.8328H56.8933ZM56.8933 31.9288V30.8328H55.7973V31.9288H56.8933ZM57.9893 31.9288V30.8328H56.8933V31.9288H57.9893ZM57.9893 30.8328V29.7368H56.8933V30.8328H57.9893ZM57.9893 29.7368V28.6408H56.8933V29.7368H57.9893ZM57.9893 28.6408V27.5448H56.8933V28.6408H57.9893ZM57.9893 27.5448V26.4488H56.8933V27.5448H57.9893ZM59.0853 28.6408V27.5448H57.9893V28.6408H59.0853ZM59.0853 29.7368V28.6408H57.9893V29.7368H59.0853ZM59.0853 30.8328V29.7368H57.9893V30.8328H59.0853ZM59.0853 27.5448V26.4488H57.9893V27.5448H59.0853Z" fill="#FF497C"/>
<path d="M91.3951 25.6278V26.6474H90.3756V25.6278H91.3951ZM90.3756 25.6278V26.6474H89.356V25.6278H90.3756ZM89.356 25.6278V26.6474H88.3364V25.6278H89.356ZM88.3364 25.6278V26.6474H87.3168V25.6278H88.3364ZM87.3168 25.6278V26.6474H86.2972V25.6278H87.3168ZM87.3168 24.6082V25.6278H86.2972V24.6082H87.3168ZM87.3168 23.5886V24.6082H86.2972V23.5886H87.3168ZM88.3364 23.5886V24.6082H87.3168V23.5886H88.3364ZM88.3364 22.569V23.5886H87.3168V22.569H88.3364ZM88.3364 21.5495V22.569H87.3168V21.5495H88.3364ZM89.356 21.5495V22.569H88.3364V21.5495H89.356ZM89.356 20.5299V21.5495H88.3364V20.5299H89.356ZM90.3756 20.5299V21.5495H89.356V20.5299H90.3756ZM91.3951 20.5299V21.5495H90.3756V20.5299H91.3951ZM91.3951 19.5103V20.5299H90.3756V19.5103H91.3951ZM92.4147 19.5103V20.5299H91.3951V19.5103H92.4147ZM93.4343 19.5103V20.5299H92.4147V19.5103H93.4343ZM94.4539 19.5103V20.5299H93.4343V19.5103H94.4539ZM95.4735 19.5103V20.5299H94.4539V19.5103H95.4735ZM95.4735 20.5299V21.5495H94.4539V20.5299H95.4735ZM96.4931 20.5299V21.5495H95.4735V20.5299H96.4931ZM97.5127 20.5299V21.5495H96.4931V20.5299H97.5127ZM97.5127 19.5103V20.5299H96.4931V19.5103H97.5127ZM98.5323 19.5103V20.5299H97.5127V19.5103H98.5323ZM96.4931 19.5103V20.5299H95.4735V19.5103H96.4931ZM98.5323 20.5299V21.5495H97.5127V20.5299H98.5323ZM99.5519 20.5299V21.5495H98.5323V20.5299H99.5519ZM100.571 20.5299V21.5495H99.5519V20.5299H100.571ZM100.571 21.5495V22.569H99.5519V21.5495H100.571ZM101.591 21.5495V22.569H100.571V21.5495H101.591ZM101.591 22.569V23.5886H100.571V22.569H101.591ZM101.591 23.5886V24.6082H100.571V23.5886H101.591ZM102.611 23.5886V24.6082H101.591V23.5886H102.611ZM102.611 24.6082V25.6278H101.591V24.6082H102.611ZM102.611 25.6278V26.6474H101.591V25.6278H102.611ZM102.611 26.6474V27.667H101.591V26.6474H102.611ZM102.611 27.667V28.6866H101.591V27.667H102.611ZM101.591 27.667V28.6866H100.571V27.667H101.591ZM100.571 27.667V28.6866H99.5519V27.667H100.571ZM99.5519 27.667V28.6866H98.5323V27.667H99.5519ZM99.5519 26.6474V27.667H98.5323V26.6474H99.5519ZM98.5323 26.6474V27.667H97.5127V26.6474H98.5323ZM98.5323 25.6278V26.6474H97.5127V25.6278H98.5323ZM98.5323 24.6082V25.6278H97.5127V24.6082H98.5323ZM99.5519 24.6082V25.6278H98.5323V24.6082H99.5519ZM100.571 24.6082V25.6278H99.5519V24.6082H100.571ZM101.591 24.6082V25.6278H100.571V24.6082H101.591ZM101.591 25.6278V26.6474H100.571V25.6278H101.591ZM101.591 26.6474V27.667H100.571V26.6474H101.591ZM100.571 25.6278V26.6474H99.5519V25.6278H100.571ZM99.5519 25.6278V26.6474H98.5323V25.6278H99.5519ZM100.571 26.6474V27.667H99.5519V26.6474H100.571ZM100.571 23.5886V24.6082H99.5519V23.5886H100.571ZM99.5519 23.5886V24.6082H98.5323V23.5886H99.5519ZM98.5323 23.5886V24.6082H97.5127V23.5886H98.5323ZM97.5127 23.5886V24.6082H96.4931V23.5886H97.5127ZM97.5127 24.6082V25.6278H96.4931V24.6082H97.5127ZM96.4931 23.5886V24.6082H95.4735V23.5886H96.4931ZM95.4735 23.5886V24.6082H94.4539V23.5886H95.4735ZM94.4539 23.5886V24.6082H93.4343V23.5886H94.4539ZM93.4343 23.5886V24.6082H92.4147V23.5886H93.4343ZM92.4147 23.5886V24.6082H91.3951V23.5886H92.4147ZM92.4147 24.6082V25.6278H91.3951V24.6082H92.4147ZM91.3951 24.6082V25.6278H90.3756V24.6082H91.3951ZM90.3756 24.6082V25.6278H89.356V24.6082H90.3756ZM89.356 24.6082V25.6278H88.3364V24.6082H89.356ZM88.3364 24.6082V25.6278H87.3168V24.6082H88.3364ZM89.356 23.5886V24.6082H88.3364V23.5886H89.356ZM90.3756 23.5886V24.6082H89.356V23.5886H90.3756ZM91.3951 23.5886V24.6082H90.3756V23.5886H91.3951ZM89.356 22.569V23.5886H88.3364V22.569H89.356ZM90.3756 22.569V23.5886H89.356V22.569H90.3756ZM91.3951 22.569V23.5886H90.3756V22.569H91.3951ZM92.4147 22.569V23.5886H91.3951V22.569H92.4147ZM93.4343 22.569V23.5886H92.4147V22.569H93.4343ZM94.4539 22.569V23.5886H93.4343V22.569H94.4539ZM95.4735 22.569V23.5886H94.4539V22.569H95.4735ZM96.4931 22.569V23.5886H95.4735V22.569H96.4931ZM97.5127 22.569V23.5886H96.4931V22.569H97.5127ZM98.5323 22.569V23.5886H97.5127V22.569H98.5323ZM99.5519 22.569V23.5886H98.5323V22.569H99.5519ZM100.571 22.569V23.5886H99.5519V22.569H100.571ZM99.5519 21.5495V22.569H98.5323V21.5495H99.5519ZM98.5323 21.5495V22.569H97.5127V21.5495H98.5323ZM97.5127 21.5495V22.569H96.4931V21.5495H97.5127ZM96.4931 21.5495V22.569H95.4735V21.5495H96.4931ZM95.4735 21.5495V22.569H94.4539V21.5495H95.4735ZM94.4539 21.5495V22.569H93.4343V21.5495H94.4539ZM93.4343 21.5495V22.569H92.4147V21.5495H93.4343ZM92.4147 21.5495V22.569H91.3951V21.5495H92.4147ZM91.3951 21.5495V22.569H90.3756V21.5495H91.3951ZM90.3756 21.5495V22.569H89.356V21.5495H90.3756ZM92.4147 20.5299V21.5495H91.3951V20.5299H92.4147ZM93.4343 20.5299V21.5495H92.4147V20.5299H93.4343ZM94.4539 20.5299V21.5495H93.4343V20.5299H94.4539ZM102.611 39.9021V40.9216H101.591V39.9021H102.611ZM102.611 40.9216V41.9412H101.591V40.9216H102.611ZM102.611 41.9412V42.9608H101.591V41.9412H102.611ZM102.611 42.9608V43.9804H101.591V42.9608H102.611ZM102.611 43.9804V45H101.591V43.9804H102.611ZM101.591 43.9804V45H100.571V43.9804H101.591ZM100.571 43.9804V45H99.5519V43.9804H100.571ZM99.5519 43.9804V45H98.5323V43.9804H99.5519ZM98.5323 43.9804V45H97.5127V43.9804H98.5323ZM97.5127 43.9804V45H96.4931V43.9804H97.5127ZM96.4931 43.9804V45H95.4735V43.9804H96.4931ZM95.4735 43.9804V45H94.4539V43.9804H95.4735ZM94.4539 43.9804V45H93.4343V43.9804H94.4539ZM93.4343 43.9804V45H92.4147V43.9804H93.4343ZM92.4147 43.9804V45H91.3951V43.9804H92.4147ZM91.3951 43.9804V45H90.3756V43.9804H91.3951ZM90.3756 43.9804V45H89.356V43.9804H90.3756ZM89.356 43.9804V45H88.3364V43.9804H89.356ZM88.3364 43.9804V45H87.3168V43.9804H88.3364ZM88.3364 42.9608V43.9804H87.3168V42.9608H88.3364ZM87.3168 42.9608V43.9804H86.2972V42.9608H87.3168ZM87.3168 43.9804V45H86.2972V43.9804H87.3168ZM87.3168 41.9412V42.9608H86.2972V41.9412H87.3168ZM87.3168 40.9216V41.9412H86.2972V40.9216H87.3168ZM88.3364 39.9021V40.9216H87.3168V39.9021H88.3364ZM89.356 39.9021V40.9216H88.3364V39.9021H89.356ZM90.3756 39.9021V40.9216H89.356V39.9021H90.3756ZM91.3951 39.9021V40.9216H90.3756V39.9021H91.3951ZM92.4147 39.9021V40.9216H91.3951V39.9021H92.4147ZM93.4343 39.9021V40.9216H92.4147V39.9021H93.4343ZM94.4539 39.9021V40.9216H93.4343V39.9021H94.4539ZM95.4735 39.9021V40.9216H94.4539V39.9021H95.4735ZM96.4931 39.9021V40.9216H95.4735V39.9021H96.4931ZM97.5127 39.9021V40.9216H96.4931V39.9021H97.5127ZM98.5323 39.9021V40.9216H97.5127V39.9021H98.5323ZM99.5519 39.9021V40.9216H98.5323V39.9021H99.5519ZM100.571 39.9021V40.9216H99.5519V39.9021H100.571ZM100.571 40.9216V41.9412H99.5519V40.9216H100.571ZM101.591 40.9216V41.9412H100.571V40.9216H101.591ZM101.591 39.9021V40.9216H100.571V39.9021H101.591ZM101.591 41.9412V42.9608H100.571V41.9412H101.591ZM100.571 41.9412V42.9608H99.5519V41.9412H100.571ZM100.571 42.9608V43.9804H99.5519V42.9608H100.571ZM101.591 42.9608V43.9804H100.571V42.9608H101.591ZM99.5519 42.9608V43.9804H98.5323V42.9608H99.5519ZM98.5323 42.9608V43.9804H97.5127V42.9608H98.5323ZM97.5127 42.9608V43.9804H96.4931V42.9608H97.5127ZM96.4931 42.9608V43.9804H95.4735V42.9608H96.4931ZM95.4735 42.9608V43.9804H94.4539V42.9608H95.4735ZM94.4539 42.9608V43.9804H93.4343V42.9608H94.4539ZM93.4343 42.9608V43.9804H92.4147V42.9608H93.4343ZM92.4147 42.9608V43.9804H91.3951V42.9608H92.4147ZM91.3951 42.9608V43.9804H90.3756V42.9608H91.3951ZM90.3756 42.9608V43.9804H89.356V42.9608H90.3756ZM89.356 42.9608V43.9804H88.3364V42.9608H89.356ZM89.356 41.9412V42.9608H88.3364V41.9412H89.356ZM88.3364 41.9412V42.9608H87.3168V41.9412H88.3364ZM88.3364 40.9216V41.9412H87.3168V40.9216H88.3364ZM89.356 40.9216V41.9412H88.3364V40.9216H89.356ZM90.3756 40.9216V41.9412H89.356V40.9216H90.3756ZM91.3951 40.9216V41.9412H90.3756V40.9216H91.3951ZM92.4147 40.9216V41.9412H91.3951V40.9216H92.4147ZM93.4343 40.9216V41.9412H92.4147V40.9216H93.4343ZM99.5519 40.9216V41.9412H98.5323V40.9216H99.5519ZM98.5323 40.9216V41.9412H97.5127V40.9216H98.5323ZM97.5127 40.9216V41.9412H96.4931V40.9216H97.5127ZM96.4931 40.9216V41.9412H95.4735V40.9216H96.4931ZM95.4735 40.9216V41.9412H94.4539V40.9216H95.4735ZM94.4539 40.9216V41.9412H93.4343V40.9216H94.4539ZM91.3951 41.9412V42.9608H90.3756V41.9412H91.3951ZM90.3756 41.9412V42.9608H89.356V41.9412H90.3756ZM92.4147 41.9412V42.9608H91.3951V41.9412H92.4147ZM93.4343 41.9412V42.9608H92.4147V41.9412H93.4343ZM94.4539 41.9412V42.9608H93.4343V41.9412H94.4539ZM95.4735 41.9412V42.9608H94.4539V41.9412H95.4735ZM96.4931 41.9412V42.9608H95.4735V41.9412H96.4931ZM97.5127 41.9412V42.9608H96.4931V41.9412H97.5127ZM98.5323 41.9412V42.9608H97.5127V41.9412H98.5323ZM99.5519 41.9412V42.9608H98.5323V41.9412H99.5519ZM87.3168 37.8629V38.8825H86.2972V37.8629H87.3168ZM87.3168 38.8825V39.9021H86.2972V38.8825H87.3168ZM87.3168 39.9021V40.9216H86.2972V39.9021H87.3168ZM88.3364 37.8629V38.8825H87.3168V37.8629H88.3364ZM88.3364 36.8433V37.8629H87.3168V36.8433H88.3364ZM89.356 36.8433V37.8629H88.3364V36.8433H89.356ZM89.356 35.8237V36.8433H88.3364V35.8237H89.356ZM90.3756 35.8237V36.8433H89.356V35.8237H90.3756ZM91.3951 34.8041V35.8237H90.3756V34.8041H91.3951ZM90.3756 34.8041V35.8237H89.356V34.8041H90.3756ZM91.3951 33.7845V34.8041H90.3756V33.7845H91.3951ZM92.4147 33.7845V34.8041H91.3951V33.7845H92.4147ZM93.4343 33.7845V34.8041H92.4147V33.7845H93.4343ZM93.4343 32.7649V33.7845H92.4147V32.7649H93.4343ZM92.4147 32.7649V33.7845H91.3951V32.7649H92.4147ZM94.4539 32.7649V33.7845H93.4343V32.7649H94.4539ZM94.4539 31.7453V32.7649H93.4343V31.7453H94.4539ZM93.4343 31.7453V32.7649H92.4147V31.7453H93.4343ZM94.4539 30.7258V31.7453H93.4343V30.7258H94.4539ZM95.4735 30.7258V31.7453H94.4539V30.7258H95.4735ZM95.4735 29.7062V30.7258H94.4539V29.7062H95.4735ZM96.4931 29.7062V30.7258H95.4735V29.7062H96.4931ZM97.5127 29.7062V30.7258H96.4931V29.7062H97.5127ZM97.5127 28.6866V29.7062H96.4931V28.6866H97.5127ZM96.4931 28.6866V29.7062H95.4735V28.6866H96.4931ZM97.5127 27.667V28.6866H96.4931V27.667H97.5127ZM98.5323 27.667V28.6866H97.5127V27.667H98.5323ZM101.591 28.6866V29.7062H100.571V28.6866H101.591ZM100.571 28.6866V29.7062H99.5519V28.6866H100.571ZM99.5519 28.6866V29.7062H98.5323V28.6866H99.5519ZM99.5519 29.7062V30.7258H98.5323V29.7062H99.5519ZM100.571 29.7062V30.7258H99.5519V29.7062H100.571ZM99.5519 30.7258V31.7453H98.5323V30.7258H99.5519ZM98.5323 30.7258V31.7453H97.5127V30.7258H98.5323ZM98.5323 31.7453V32.7649H97.5127V31.7453H98.5323ZM97.5127 31.7453V32.7649H96.4931V31.7453H97.5127ZM97.5127 32.7649V33.7845H96.4931V32.7649H97.5127ZM96.4931 32.7649V33.7845H95.4735V32.7649H96.4931ZM96.4931 33.7845V34.8041H95.4735V33.7845H96.4931ZM95.4735 33.7845V34.8041H94.4539V33.7845H95.4735ZM94.4539 33.7845V34.8041H93.4343V33.7845H94.4539ZM94.4539 34.8041V35.8237H93.4343V34.8041H94.4539ZM95.4735 34.8041V35.8237H94.4539V34.8041H95.4735ZM94.4539 35.8237V36.8433H93.4343V35.8237H94.4539ZM93.4343 35.8237V36.8433H92.4147V35.8237H93.4343ZM93.4343 36.8433V37.8629H92.4147V36.8433H93.4343ZM92.4147 36.8433V37.8629H91.3951V36.8433H92.4147ZM91.3951 36.8433V37.8629H90.3756V36.8433H91.3951ZM91.3951 37.8629V38.8825H90.3756V37.8629H91.3951ZM91.3951 38.8825V39.9021H90.3756V38.8825H91.3951ZM92.4147 37.8629V38.8825H91.3951V37.8629H92.4147ZM90.3756 38.8825V39.9021H89.356V38.8825H90.3756ZM89.356 38.8825V39.9021H88.3364V38.8825H89.356ZM88.3364 38.8825V39.9021H87.3168V38.8825H88.3364ZM89.356 37.8629V38.8825H88.3364V37.8629H89.356ZM90.3756 37.8629V38.8825H89.356V37.8629H90.3756ZM90.3756 36.8433V37.8629H89.356V36.8433H90.3756ZM91.3951 35.8237V36.8433H90.3756V35.8237H91.3951ZM92.4147 35.8237V36.8433H91.3951V35.8237H92.4147ZM92.4147 34.8041V35.8237H91.3951V34.8041H92.4147ZM93.4343 34.8041V35.8237H92.4147V34.8041H93.4343ZM95.4735 31.7453V32.7649H94.4539V31.7453H95.4735ZM96.4931 31.7453V32.7649H95.4735V31.7453H96.4931ZM96.4931 30.7258V31.7453H95.4735V30.7258H96.4931ZM97.5127 30.7258V31.7453H96.4931V30.7258H97.5127ZM98.5323 29.7062V30.7258H97.5127V29.7062H98.5323ZM95.4735 32.7649V33.7845H94.4539V32.7649H95.4735ZM98.5323 28.6866V29.7062H97.5127V28.6866H98.5323Z" fill="black"/>
<path d="M96.7876 71.7486V72.7682H95.768V71.7486H96.7876ZM96.7876 72.7682V73.7878H95.768V72.7682H96.7876ZM96.7876 73.7878V74.8074H95.768V73.7878H96.7876ZM96.7876 74.8074V75.827H95.768V74.8074H96.7876ZM96.7876 75.827V76.8466H95.768V75.827H96.7876ZM96.7876 76.8466V77.8662H95.768V76.8466H96.7876ZM95.768 76.8466V77.8662H94.7484V76.8466H95.768ZM95.768 75.827V76.8466H94.7484V75.827H95.768ZM95.768 74.8074V75.827H94.7484V74.8074H95.768ZM95.768 73.7878V74.8074H94.7484V73.7878H95.768ZM95.768 72.7682V73.7878H94.7484V72.7682H95.768ZM95.768 71.7486V72.7682H94.7484V71.7486H95.768ZM94.7484 73.7878V74.8074H93.7289V73.7878H94.7484ZM94.7484 74.8074V75.827H93.7289V74.8074H94.7484ZM94.7484 72.7682V73.7878H93.7289V72.7682H94.7484ZM93.7289 73.7878V74.8074H92.7093V73.7878H93.7289ZM93.7289 74.8074V75.827H92.7093V74.8074H93.7289ZM92.7093 74.8074V75.827H91.6897V74.8074H92.7093ZM92.7093 75.827V76.8466H91.6897V75.827H92.7093ZM91.6897 75.827V76.8466H90.6701V75.827H91.6897ZM91.6897 76.8466V77.8662H90.6701V76.8466H91.6897ZM91.6897 77.8662V78.8857H90.6701V77.8662H91.6897ZM90.6701 77.8662V78.8857H89.6505V77.8662H90.6701ZM90.6701 78.8857V79.9053H89.6505V78.8857H90.6701ZM89.6505 78.8857V79.9053H88.6309V78.8857H89.6505ZM89.6505 79.9053V80.9249H88.6309V79.9053H89.6505ZM88.6309 79.9053V80.9249H87.6113V79.9053H88.6309ZM88.6309 80.9249V81.9445H87.6113V80.9249H88.6309ZM87.6113 80.9249V81.9445H86.5917V80.9249H87.6113ZM87.6113 81.9445V82.9641H86.5917V81.9445H87.6113ZM86.5917 81.9445V82.9641H85.5721V81.9445H86.5917ZM86.5917 80.9249V81.9445H85.5721V80.9249H86.5917ZM87.6113 79.9053V80.9249H86.5917V79.9053H87.6113ZM88.6309 78.8857V79.9053H87.6113V78.8857H88.6309ZM89.6505 77.8662V78.8857H88.6309V77.8662H89.6505ZM90.6701 76.8466V77.8662H89.6505V76.8466H90.6701ZM94.7484 76.8466V77.8662H93.7289V76.8466H94.7484ZM94.7484 77.8662V78.8857H93.7289V77.8662H94.7484ZM93.7289 77.8662V78.8857H92.7093V77.8662H93.7289ZM93.7289 78.8857V79.9053H92.7093V78.8857H93.7289ZM92.7093 78.8857V79.9053H91.6897V78.8857H92.7093ZM92.7093 79.9053V80.9249H91.6897V79.9053H92.7093ZM91.6897 80.9249V81.9445H90.6701V80.9249H91.6897ZM90.6701 81.9445V82.9641H89.6505V81.9445H90.6701ZM90.6701 82.9641V83.9837H89.6505V82.9641H90.6701ZM89.6505 82.9641V83.9837H88.6309V82.9641H89.6505ZM94.7484 75.827V76.8466H93.7289V75.827H94.7484ZM93.7289 75.827V76.8466H92.7093V75.827H93.7289ZM92.7093 76.8466V77.8662H91.6897V76.8466H92.7093ZM92.7093 77.8662V78.8857H91.6897V77.8662H92.7093ZM93.7289 76.8466V77.8662H92.7093V76.8466H93.7289ZM91.6897 78.8857V79.9053H90.6701V78.8857H91.6897ZM90.6701 79.9053V80.9249H89.6505V79.9053H90.6701ZM90.6701 80.9249V81.9445H89.6505V80.9249H90.6701ZM89.6505 80.9249V81.9445H88.6309V80.9249H89.6505ZM89.6505 81.9445V82.9641H88.6309V81.9445H89.6505ZM88.6309 81.9445V82.9641H87.6113V81.9445H88.6309ZM88.6309 82.9641V83.9837H87.6113V82.9641H88.6309ZM91.6897 79.9053V80.9249H90.6701V79.9053H91.6897ZM90.6701 83.9837V85.0033H89.6505V83.9837H90.6701ZM90.6701 85.0033V86.0229H89.6505V85.0033H90.6701ZM90.6701 86.0229V87.0425H89.6505V86.0229H90.6701ZM91.6897 86.0229V87.0425H90.6701V86.0229H91.6897ZM92.7093 86.0229V87.0425H91.6897V86.0229H92.7093ZM93.7289 86.0229V87.0425H92.7093V86.0229H93.7289ZM94.7484 86.0229V87.0425H93.7289V86.0229H94.7484ZM95.768 86.0229V87.0425H94.7484V86.0229H95.768ZM96.7876 86.0229V87.0425H95.768V86.0229H96.7876ZM96.7876 85.0033V86.0229H95.768V85.0033H96.7876ZM96.7876 83.9837V85.0033H95.768V83.9837H96.7876ZM96.7876 82.9641V83.9837H95.768V82.9641H96.7876ZM96.7876 81.9445V82.9641H95.768V81.9445H96.7876ZM96.7876 80.9249V81.9445H95.768V80.9249H96.7876ZM96.7876 79.9053V80.9249H95.768V79.9053H96.7876ZM96.7876 78.8857V79.9053H95.768V78.8857H96.7876ZM97.8072 78.8857V79.9053H96.7876V78.8857H97.8072ZM97.8072 77.8662V78.8857H96.7876V77.8662H97.8072ZM96.7876 77.8662V78.8857H95.768V77.8662H96.7876ZM97.8072 70.729V71.7486H96.7876V70.729H97.8072ZM98.8268 70.729V71.7486H97.8072V70.729H98.8268ZM96.7876 70.729V71.7486H95.768V70.729H96.7876ZM99.8464 70.729V71.7486H98.8268V70.729H99.8464ZM100.866 70.729V71.7486H99.8464V70.729H100.866ZM100.866 71.7486V72.7682H99.8464V71.7486H100.866ZM100.866 72.7682V73.7878H99.8464V72.7682H100.866ZM100.866 73.7878V74.8074H99.8464V73.7878H100.866ZM100.866 74.8074V75.827H99.8464V74.8074H100.866ZM100.866 75.827V76.8466H99.8464V75.827H100.866ZM100.866 76.8466V77.8662H99.8464V76.8466H100.866ZM100.866 77.8662V78.8857H99.8464V77.8662H100.866ZM100.866 78.8857V79.9053H99.8464V78.8857H100.866ZM100.866 79.9053V80.9249H99.8464V79.9053H100.866ZM100.866 80.9249V81.9445H99.8464V80.9249H100.866ZM100.866 81.9445V82.9641H99.8464V81.9445H100.866ZM100.866 82.9641V83.9837H99.8464V82.9641H100.866ZM100.866 83.9837V85.0033H99.8464V83.9837H100.866ZM100.866 85.0033V86.0229H99.8464V85.0033H100.866ZM100.866 86.0229V87.0425H99.8464V86.0229H100.866ZM100.866 87.0425V88.062H99.8464V87.0425H100.866ZM100.866 88.062V89.0816H99.8464V88.062H100.866ZM100.866 89.0816V90.1012H99.8464V89.0816H100.866ZM99.8464 89.0816V90.1012H98.8268V89.0816H99.8464ZM99.8464 90.1012V91.1208H98.8268V90.1012H99.8464ZM98.8268 90.1012V91.1208H97.8072V90.1012H98.8268ZM97.8072 91.1208V92.1404H96.7876V91.1208H97.8072ZM96.7876 91.1208V92.1404H95.768V91.1208H96.7876ZM96.7876 90.1012V91.1208H95.768V90.1012H96.7876ZM95.768 90.1012V91.1208H94.7484V90.1012H95.768ZM94.7484 90.1012V91.1208H93.7289V90.1012H94.7484ZM93.7289 90.1012V91.1208H92.7093V90.1012H93.7289ZM92.7093 90.1012V91.1208H91.6897V90.1012H92.7093ZM91.6897 90.1012V91.1208H90.6701V90.1012H91.6897ZM90.6701 90.1012V91.1208H89.6505V90.1012H90.6701ZM89.6505 90.1012V91.1208H88.6309V90.1012H89.6505ZM88.6309 90.1012V91.1208H87.6113V90.1012H88.6309ZM87.6113 90.1012V91.1208H86.5917V90.1012H87.6113ZM86.5917 90.1012V91.1208H85.5721V90.1012H86.5917ZM86.5917 89.0816V90.1012H85.5721V89.0816H86.5917ZM86.5917 88.062V89.0816H85.5721V88.062H86.5917ZM86.5917 87.0425V88.062H85.5721V87.0425H86.5917ZM86.5917 86.0229V87.0425H85.5721V86.0229H86.5917ZM86.5917 85.0033V86.0229H85.5721V85.0033H86.5917ZM87.6113 85.0033V86.0229H86.5917V85.0033H87.6113ZM87.6113 83.9837V85.0033H86.5917V83.9837H87.6113ZM87.6113 82.9641V83.9837H86.5917V82.9641H87.6113ZM86.5917 82.9641V83.9837H85.5721V82.9641H86.5917ZM86.5917 83.9837V85.0033H85.5721V83.9837H86.5917ZM88.6309 83.9837V85.0033H87.6113V83.9837H88.6309ZM89.6505 83.9837V85.0033H88.6309V83.9837H89.6505ZM89.6505 85.0033V86.0229H88.6309V85.0033H89.6505ZM89.6505 86.0229V87.0425H88.6309V86.0229H89.6505ZM89.6505 87.0425V88.062H88.6309V87.0425H89.6505ZM88.6309 87.0425V88.062H87.6113V87.0425H88.6309ZM88.6309 86.0229V87.0425H87.6113V86.0229H88.6309ZM88.6309 85.0033V86.0229H87.6113V85.0033H88.6309ZM87.6113 86.0229V87.0425H86.5917V86.0229H87.6113ZM87.6113 87.0425V88.062H86.5917V87.0425H87.6113ZM87.6113 88.062V89.0816H86.5917V88.062H87.6113ZM87.6113 89.0816V90.1012H86.5917V89.0816H87.6113ZM88.6309 89.0816V90.1012H87.6113V89.0816H88.6309ZM89.6505 89.0816V90.1012H88.6309V89.0816H89.6505ZM90.6701 89.0816V90.1012H89.6505V89.0816H90.6701ZM91.6897 89.0816V90.1012H90.6701V89.0816H91.6897ZM92.7093 89.0816V90.1012H91.6897V89.0816H92.7093ZM93.7289 89.0816V90.1012H92.7093V89.0816H93.7289ZM94.7484 89.0816V90.1012H93.7289V89.0816H94.7484ZM95.768 89.0816V90.1012H94.7484V89.0816H95.768ZM96.7876 89.0816V90.1012H95.768V89.0816H96.7876ZM97.8072 89.0816V90.1012H96.7876V89.0816H97.8072ZM98.8268 89.0816V90.1012H97.8072V89.0816H98.8268ZM97.8072 90.1012V91.1208H96.7876V90.1012H97.8072ZM99.8464 88.062V89.0816H98.8268V88.062H99.8464ZM98.8268 88.062V89.0816H97.8072V88.062H98.8268ZM97.8072 88.062V89.0816H96.7876V88.062H97.8072ZM97.8072 87.0425V88.062H96.7876V87.0425H97.8072ZM96.7876 87.0425V88.062H95.768V87.0425H96.7876ZM95.768 87.0425V88.062H94.7484V87.0425H95.768ZM94.7484 87.0425V88.062H93.7289V87.0425H94.7484ZM93.7289 87.0425V88.062H92.7093V87.0425H93.7289ZM92.7093 87.0425V88.062H91.6897V87.0425H92.7093ZM91.6897 87.0425V88.062H90.6701V87.0425H91.6897ZM90.6701 87.0425V88.062H89.6505V87.0425H90.6701ZM88.6309 88.062V89.0816H87.6113V88.062H88.6309ZM89.6505 88.062V89.0816H88.6309V88.062H89.6505ZM90.6701 88.062V89.0816H89.6505V88.062H90.6701ZM91.6897 88.062V89.0816H90.6701V88.062H91.6897ZM92.7093 88.062V89.0816H91.6897V88.062H92.7093ZM93.7289 88.062V89.0816H92.7093V88.062H93.7289ZM94.7484 88.062V89.0816H93.7289V88.062H94.7484ZM95.768 88.062V89.0816H94.7484V88.062H95.768ZM96.7876 88.062V89.0816H95.768V88.062H96.7876ZM97.8072 86.0229V87.0425H96.7876V86.0229H97.8072ZM97.8072 85.0033V86.0229H96.7876V85.0033H97.8072ZM97.8072 83.9837V85.0033H96.7876V83.9837H97.8072ZM97.8072 82.9641V83.9837H96.7876V82.9641H97.8072ZM97.8072 81.9445V82.9641H96.7876V81.9445H97.8072ZM97.8072 80.9249V81.9445H96.7876V80.9249H97.8072ZM98.8268 79.9053V80.9249H97.8072V79.9053H98.8268ZM98.8268 78.8857V79.9053H97.8072V78.8857H98.8268ZM98.8268 77.8662V78.8857H97.8072V77.8662H98.8268ZM98.8268 76.8466V77.8662H97.8072V76.8466H98.8268ZM98.8268 75.827V76.8466H97.8072V75.827H98.8268ZM97.8072 75.827V76.8466H96.7876V75.827H97.8072ZM97.8072 74.8074V75.827H96.7876V74.8074H97.8072ZM97.8072 73.7878V74.8074H96.7876V73.7878H97.8072ZM97.8072 72.7682V73.7878H96.7876V72.7682H97.8072ZM97.8072 71.7486V72.7682H96.7876V71.7486H97.8072ZM98.8268 71.7486V72.7682H97.8072V71.7486H98.8268ZM99.8464 71.7486V72.7682H98.8268V71.7486H99.8464ZM99.8464 72.7682V73.7878H98.8268V72.7682H99.8464ZM99.8464 73.7878V74.8074H98.8268V73.7878H99.8464ZM99.8464 74.8074V75.827H98.8268V74.8074H99.8464ZM99.8464 75.827V76.8466H98.8268V75.827H99.8464ZM99.8464 76.8466V77.8662H98.8268V76.8466H99.8464ZM99.8464 77.8662V78.8857H98.8268V77.8662H99.8464ZM99.8464 78.8857V79.9053H98.8268V78.8857H99.8464ZM99.8464 79.9053V80.9249H98.8268V79.9053H99.8464ZM99.8464 80.9249V81.9445H98.8268V80.9249H99.8464ZM99.8464 81.9445V82.9641H98.8268V81.9445H99.8464ZM99.8464 82.9641V83.9837H98.8268V82.9641H99.8464ZM99.8464 83.9837V85.0033H98.8268V83.9837H99.8464ZM99.8464 85.0033V86.0229H98.8268V85.0033H99.8464ZM99.8464 86.0229V87.0425H98.8268V86.0229H99.8464ZM99.8464 87.0425V88.062H98.8268V87.0425H99.8464ZM98.8268 87.0425V88.062H97.8072V87.0425H98.8268ZM98.8268 86.0229V87.0425H97.8072V86.0229H98.8268ZM98.8268 85.0033V86.0229H97.8072V85.0033H98.8268ZM98.8268 82.9641V83.9837H97.8072V82.9641H98.8268ZM98.8268 83.9837V85.0033H97.8072V83.9837H98.8268ZM98.8268 80.9249V81.9445H97.8072V80.9249H98.8268ZM98.8268 81.9445V82.9641H97.8072V81.9445H98.8268ZM97.8072 76.8466V77.8662H96.7876V76.8466H97.8072ZM97.8072 79.9053V80.9249H96.7876V79.9053H97.8072ZM98.8268 74.8074V75.827H97.8072V74.8074H98.8268ZM98.8268 73.7878V74.8074H97.8072V73.7878H98.8268ZM98.8268 72.7682V73.7878H97.8072V72.7682H98.8268ZM96.7876 92.1404V93.16H95.768V92.1404H96.7876ZM96.7876 93.16V94.1796H95.768V93.16H96.7876ZM96.7876 94.1796V95.1992H95.768V94.1796H96.7876ZM96.7876 95.1992V96.2188H95.768V95.1992H96.7876ZM97.8072 95.1992V96.2188H96.7876V95.1992H97.8072ZM98.8268 95.1992V96.2188H97.8072V95.1992H98.8268ZM99.8464 95.1992V96.2188H98.8268V95.1992H99.8464ZM100.866 94.1796V95.1992H99.8464V94.1796H100.866ZM100.866 93.16V94.1796H99.8464V93.16H100.866ZM100.866 95.1992V96.2188H99.8464V95.1992H100.866ZM100.866 92.1404V93.16H99.8464V92.1404H100.866ZM100.866 91.1208V92.1404H99.8464V91.1208H100.866ZM100.866 90.1012V91.1208H99.8464V90.1012H100.866ZM99.8464 91.1208V92.1404H98.8268V91.1208H99.8464ZM99.8464 92.1404V93.16H98.8268V92.1404H99.8464ZM98.8268 92.1404V93.16H97.8072V92.1404H98.8268ZM98.8268 93.16V94.1796H97.8072V93.16H98.8268ZM98.8268 94.1796V95.1992H97.8072V94.1796H98.8268ZM99.8464 94.1796V95.1992H98.8268V94.1796H99.8464ZM99.8464 93.16V94.1796H98.8268V93.16H99.8464ZM97.8072 94.1796V95.1992H96.7876V94.1796H97.8072ZM98.8268 91.1208V92.1404H97.8072V91.1208H98.8268ZM97.8072 93.16V94.1796H96.7876V93.16H97.8072ZM97.8072 92.1404V93.16H96.7876V92.1404H97.8072Z" fill="black"/>
<path d="M7.29748 65.9804V67H6.27789V65.9804H7.29748ZM7.29748 64.9608V65.9804H6.27789V64.9608H7.29748ZM7.29748 63.9412V64.9608H6.27789V63.9412H7.29748ZM7.29748 62.9216V63.9412H6.27789V62.9216H7.29748ZM7.29748 61.9021V62.9216H6.27789V61.9021H7.29748ZM7.29748 60.8825V61.9021H6.27789V60.8825H7.29748ZM7.29748 59.8629V60.8825H6.27789V59.8629H7.29748ZM7.29748 58.8433V59.8629H6.27789V58.8433H7.29748ZM7.29748 57.8237V58.8433H6.27789V57.8237H7.29748ZM7.29748 56.8041V57.8237H6.27789V56.8041H7.29748ZM7.29748 55.7845V56.8041H6.27789V55.7845H7.29748ZM7.29748 54.7649V55.7845H6.27789V54.7649H7.29748ZM7.29748 53.7453V54.7649H6.27789V53.7453H7.29748ZM7.29748 52.7258V53.7453H6.27789V52.7258H7.29748ZM7.29748 51.7062V52.7258H6.27789V51.7062H7.29748ZM8.31707 51.7062V52.7258H7.29748V51.7062H8.31707ZM8.31707 52.7258V53.7453H7.29748V52.7258H8.31707ZM8.31707 53.7453V54.7649H7.29748V53.7453H8.31707ZM8.31707 54.7649V55.7845H7.29748V54.7649H8.31707ZM8.31707 55.7845V56.8041H7.29748V55.7845H8.31707ZM8.31707 56.8041V57.8237H7.29748V56.8041H8.31707ZM8.31707 57.8237V58.8433H7.29748V57.8237H8.31707ZM9.33665 58.8433V59.8629H8.31707V58.8433H9.33665ZM9.33665 59.8629V60.8825H8.31707V59.8629H9.33665ZM9.33665 60.8825V61.9021H8.31707V60.8825H9.33665ZM9.33665 61.9021V62.9216H8.31707V61.9021H9.33665ZM9.33665 62.9216V63.9412H8.31707V62.9216H9.33665ZM9.33665 63.9412V64.9608H8.31707V63.9412H9.33665ZM9.33665 64.9608V65.9804H8.31707V64.9608H9.33665ZM9.33665 65.9804V67H8.31707V65.9804H9.33665ZM10.3562 65.9804V67H9.33665V65.9804H10.3562ZM11.3758 65.9804V67H10.3562V65.9804H11.3758ZM11.3758 64.9608V65.9804H10.3562V64.9608H11.3758ZM11.3758 63.9412V64.9608H10.3562V63.9412H11.3758ZM11.3758 62.9216V63.9412H10.3562V62.9216H11.3758ZM11.3758 61.9021V62.9216H10.3562V61.9021H11.3758ZM11.3758 60.8825V61.9021H10.3562V60.8825H11.3758ZM11.3758 59.8629V60.8825H10.3562V59.8629H11.3758ZM11.3758 58.8433V59.8629H10.3562V58.8433H11.3758ZM10.3562 58.8433V59.8629H9.33665V58.8433H10.3562ZM10.3562 57.8237V58.8433H9.33665V57.8237H10.3562ZM10.3562 59.8629V60.8825H9.33665V59.8629H10.3562ZM10.3562 60.8825V61.9021H9.33665V60.8825H10.3562ZM10.3562 61.9021V62.9216H9.33665V61.9021H10.3562ZM10.3562 62.9216V63.9412H9.33665V62.9216H10.3562ZM10.3562 63.9412V64.9608H9.33665V63.9412H10.3562ZM10.3562 64.9608V65.9804H9.33665V64.9608H10.3562ZM8.31707 65.9804V67H7.29748V65.9804H8.31707ZM8.31707 64.9608V65.9804H7.29748V64.9608H8.31707ZM8.31707 63.9412V64.9608H7.29748V63.9412H8.31707ZM8.31707 62.9216V63.9412H7.29748V62.9216H8.31707ZM8.31707 61.9021V62.9216H7.29748V61.9021H8.31707ZM8.31707 60.8825V61.9021H7.29748V60.8825H8.31707ZM8.31707 59.8629V60.8825H7.29748V59.8629H8.31707ZM8.31707 58.8433V59.8629H7.29748V58.8433H8.31707ZM7.29748 41.5103V42.5299H6.27789V41.5103H7.29748ZM7.29748 42.5299V43.5495H6.27789V42.5299H7.29748ZM7.29748 43.5495V44.569H6.27789V43.5495H7.29748ZM7.29748 44.569V45.5886H6.27789V44.569H7.29748ZM7.29748 45.5886V46.6082H6.27789V45.5886H7.29748ZM7.29748 46.6082V47.6278H6.27789V46.6082H7.29748ZM7.29748 47.6278V48.6474H6.27789V47.6278H7.29748ZM7.29748 48.6474V49.667H6.27789V48.6474H7.29748ZM7.29748 49.667V50.6866H6.27789V49.667H7.29748ZM7.29748 50.6866V51.7062H6.27789V50.6866H7.29748ZM10.3562 41.5103V42.5299H9.33665V41.5103H10.3562ZM10.3562 42.5299V43.5495H9.33665V42.5299H10.3562ZM10.3562 43.5495V44.569H9.33665V43.5495H10.3562ZM10.3562 44.569V45.5886H9.33665V44.569H10.3562ZM10.3562 45.5886V46.6082H9.33665V45.5886H10.3562ZM10.3562 46.6082V47.6278H9.33665V46.6082H10.3562ZM10.3562 48.6474V49.667H9.33665V48.6474H10.3562ZM10.3562 49.667V50.6866H9.33665V49.667H10.3562ZM10.3562 50.6866V51.7062H9.33665V50.6866H10.3562ZM10.3562 51.7062V52.7258H9.33665V51.7062H10.3562ZM10.3562 52.7258V53.7453H9.33665V52.7258H10.3562ZM10.3562 53.7453V54.7649H9.33665V53.7453H10.3562ZM10.3562 54.7649V55.7845H9.33665V54.7649H10.3562ZM11.3758 55.7845V56.8041H10.3562V55.7845H11.3758ZM11.3758 56.8041V57.8237H10.3562V56.8041H11.3758ZM11.3758 57.8237V58.8433H10.3562V57.8237H11.3758ZM11.3758 54.7649V55.7845H10.3562V54.7649H11.3758ZM11.3758 53.7453V54.7649H10.3562V53.7453H11.3758ZM11.3758 52.7258V53.7453H10.3562V52.7258H11.3758ZM11.3758 51.7062V52.7258H10.3562V51.7062H11.3758ZM11.3758 50.6866V51.7062H10.3562V50.6866H11.3758ZM11.3758 49.667V50.6866H10.3562V49.667H11.3758ZM11.3758 48.6474V49.667H10.3562V48.6474H11.3758ZM11.3758 47.6278V48.6474H10.3562V47.6278H11.3758ZM11.3758 46.6082V47.6278H10.3562V46.6082H11.3758ZM11.3758 45.5886V46.6082H10.3562V45.5886H11.3758ZM10.3562 47.6278V48.6474H9.33665V47.6278H10.3562ZM11.3758 44.569V45.5886H10.3562V44.569H11.3758ZM11.3758 43.5495V44.569H10.3562V43.5495H11.3758ZM11.3758 42.5299V43.5495H10.3562V42.5299H11.3758ZM11.3758 41.5103V42.5299H10.3562V41.5103H11.3758ZM9.33665 41.5103V42.5299H8.31707V41.5103H9.33665ZM8.31707 41.5103V42.5299H7.29748V41.5103H8.31707ZM8.31707 42.5299V43.5495H7.29748V42.5299H8.31707ZM9.33665 42.5299V43.5495H8.31707V42.5299H9.33665ZM9.33665 43.5495V44.569H8.31707V43.5495H9.33665ZM9.33665 44.569V45.5886H8.31707V44.569H9.33665ZM9.33665 45.5886V46.6082H8.31707V45.5886H9.33665ZM9.33665 46.6082V47.6278H8.31707V46.6082H9.33665ZM9.33665 47.6278V48.6474H8.31707V47.6278H9.33665ZM9.33665 48.6474V49.667H8.31707V48.6474H9.33665ZM8.31707 49.667V50.6866H7.29748V49.667H8.31707ZM8.31707 50.6866V51.7062H7.29748V50.6866H8.31707ZM8.31707 48.6474V49.667H7.29748V48.6474H8.31707ZM8.31707 47.6278V48.6474H7.29748V47.6278H8.31707ZM8.31707 46.6082V47.6278H7.29748V46.6082H8.31707ZM8.31707 45.5886V46.6082H7.29748V45.5886H8.31707ZM8.31707 44.569V45.5886H7.29748V44.569H8.31707ZM8.31707 43.5495V44.569H7.29748V43.5495H8.31707ZM9.33665 49.667V50.6866H8.31707V49.667H9.33665ZM9.33665 50.6866V51.7062H8.31707V50.6866H9.33665ZM9.33665 51.7062V52.7258H8.31707V51.7062H9.33665ZM9.33665 52.7258V53.7453H8.31707V52.7258H9.33665ZM9.33665 53.7453V54.7649H8.31707V53.7453H9.33665ZM9.33665 54.7649V55.7845H8.31707V54.7649H9.33665ZM9.33665 55.7845V56.8041H8.31707V55.7845H9.33665ZM9.33665 56.8041V57.8237H8.31707V56.8041H9.33665ZM9.33665 57.8237V58.8433H8.31707V57.8237H9.33665ZM10.3562 56.8041V57.8237H9.33665V56.8041H10.3562ZM10.3562 55.7845V56.8041H9.33665V55.7845H10.3562ZM6.27789 41.5103V42.5299H5.2583V41.5103H6.27789ZM5.2583 41.5103V42.5299H4.23871V41.5103H5.2583ZM4.23871 41.5103V42.5299H3.21912V41.5103H4.23871ZM3.21912 41.5103V42.5299H2.19953V41.5103H3.21912ZM3.21912 42.5299V43.5495H2.19953V42.5299H3.21912ZM3.21912 43.5495V44.569H2.19953V43.5495H3.21912ZM3.21912 44.569V45.5886H2.19953V44.569H3.21912ZM3.21912 45.5886V46.6082H2.19953V45.5886H3.21912ZM4.23871 45.5886V46.6082H3.21912V45.5886H4.23871ZM5.2583 45.5886V46.6082H4.23871V45.5886H5.2583ZM6.27789 45.5886V46.6082H5.2583V45.5886H6.27789ZM6.27789 44.569V45.5886H5.2583V44.569H6.27789ZM6.27789 43.5495V44.569H5.2583V43.5495H6.27789ZM6.27789 42.5299V43.5495H5.2583V42.5299H6.27789ZM5.2583 42.5299V43.5495H4.23871V42.5299H5.2583ZM4.23871 42.5299V43.5495H3.21912V42.5299H4.23871ZM4.23871 43.5495V44.569H3.21912V43.5495H4.23871ZM4.23871 44.569V45.5886H3.21912V44.569H4.23871ZM5.2583 44.569V45.5886H4.23871V44.569H5.2583ZM5.2583 43.5495V44.569H4.23871V43.5495H5.2583ZM20.5651 47.6278V48.6474H19.5455V47.6278H20.5651ZM19.5455 47.6278V48.6474H18.5259V47.6278H19.5455ZM18.5259 47.6278V48.6474H17.5063V47.6278H18.5259ZM17.5063 47.6278V48.6474H16.4867V47.6278H17.5063ZM16.4867 47.6278V48.6474H15.4671V47.6278H16.4867ZM16.4867 46.6082V47.6278H15.4671V46.6082H16.4867ZM16.4867 45.5886V46.6082H15.4671V45.5886H16.4867ZM17.5063 45.5886V46.6082H16.4867V45.5886H17.5063ZM17.5063 44.569V45.5886H16.4867V44.569H17.5063ZM17.5063 43.5495V44.569H16.4867V43.5495H17.5063ZM18.5259 43.5495V44.569H17.5063V43.5495H18.5259ZM18.5259 42.5299V43.5495H17.5063V42.5299H18.5259ZM19.5455 42.5299V43.5495H18.5259V42.5299H19.5455ZM20.5651 42.5299V43.5495H19.5455V42.5299H20.5651ZM20.5651 41.5103V42.5299H19.5455V41.5103H20.5651ZM21.5847 41.5103V42.5299H20.5651V41.5103H21.5847ZM22.6043 41.5103V42.5299H21.5847V41.5103H22.6043ZM23.6238 41.5103V42.5299H22.6043V41.5103H23.6238ZM24.6434 41.5103V42.5299H23.6238V41.5103H24.6434ZM24.6434 42.5299V43.5495H23.6238V42.5299H24.6434ZM25.663 42.5299V43.5495H24.6434V42.5299H25.663ZM26.6826 42.5299V43.5495H25.663V42.5299H26.6826ZM26.6826 41.5103V42.5299H25.663V41.5103H26.6826ZM27.7022 41.5103V42.5299H26.6826V41.5103H27.7022ZM25.663 41.5103V42.5299H24.6434V41.5103H25.663ZM27.7022 42.5299V43.5495H26.6826V42.5299H27.7022ZM28.7218 42.5299V43.5495H27.7022V42.5299H28.7218ZM29.7414 42.5299V43.5495H28.7218V42.5299H29.7414ZM29.7414 43.5495V44.569H28.7218V43.5495H29.7414ZM30.761 43.5495V44.569H29.7414V43.5495H30.761ZM30.761 44.569V45.5886H29.7414V44.569H30.761ZM30.761 45.5886V46.6082H29.7414V45.5886H30.761ZM31.7806 45.5886V46.6082H30.761V45.5886H31.7806ZM31.7806 46.6082V47.6278H30.761V46.6082H31.7806ZM31.7806 47.6278V48.6474H30.761V47.6278H31.7806ZM31.7806 48.6474V49.667H30.761V48.6474H31.7806ZM31.7806 49.667V50.6866H30.761V49.667H31.7806ZM30.761 49.667V50.6866H29.7414V49.667H30.761ZM29.7414 49.667V50.6866H28.7218V49.667H29.7414ZM28.7218 49.667V50.6866H27.7022V49.667H28.7218ZM28.7218 48.6474V49.667H27.7022V48.6474H28.7218ZM27.7022 48.6474V49.667H26.6826V48.6474H27.7022ZM27.7022 47.6278V48.6474H26.6826V47.6278H27.7022ZM27.7022 46.6082V47.6278H26.6826V46.6082H27.7022ZM28.7218 46.6082V47.6278H27.7022V46.6082H28.7218ZM29.7414 46.6082V47.6278H28.7218V46.6082H29.7414ZM30.761 46.6082V47.6278H29.7414V46.6082H30.761ZM30.761 47.6278V48.6474H29.7414V47.6278H30.761ZM30.761 48.6474V49.667H29.7414V48.6474H30.761ZM29.7414 47.6278V48.6474H28.7218V47.6278H29.7414ZM28.7218 47.6278V48.6474H27.7022V47.6278H28.7218ZM29.7414 48.6474V49.667H28.7218V48.6474H29.7414ZM29.7414 45.5886V46.6082H28.7218V45.5886H29.7414ZM28.7218 45.5886V46.6082H27.7022V45.5886H28.7218ZM27.7022 45.5886V46.6082H26.6826V45.5886H27.7022ZM26.6826 45.5886V46.6082H25.663V45.5886H26.6826ZM26.6826 46.6082V47.6278H25.663V46.6082H26.6826ZM25.663 45.5886V46.6082H24.6434V45.5886H25.663ZM24.6434 45.5886V46.6082H23.6238V45.5886H24.6434ZM23.6238 45.5886V46.6082H22.6043V45.5886H23.6238ZM22.6043 45.5886V46.6082H21.5847V45.5886H22.6043ZM21.5847 45.5886V46.6082H20.5651V45.5886H21.5847ZM21.5847 46.6082V47.6278H20.5651V46.6082H21.5847ZM20.5651 46.6082V47.6278H19.5455V46.6082H20.5651ZM19.5455 46.6082V47.6278H18.5259V46.6082H19.5455ZM18.5259 46.6082V47.6278H17.5063V46.6082H18.5259ZM17.5063 46.6082V47.6278H16.4867V46.6082H17.5063ZM18.5259 45.5886V46.6082H17.5063V45.5886H18.5259ZM19.5455 45.5886V46.6082H18.5259V45.5886H19.5455ZM20.5651 45.5886V46.6082H19.5455V45.5886H20.5651ZM18.5259 44.569V45.5886H17.5063V44.569H18.5259ZM19.5455 44.569V45.5886H18.5259V44.569H19.5455ZM20.5651 44.569V45.5886H19.5455V44.569H20.5651ZM21.5847 44.569V45.5886H20.5651V44.569H21.5847ZM22.6043 44.569V45.5886H21.5847V44.569H22.6043ZM23.6238 44.569V45.5886H22.6043V44.569H23.6238ZM24.6434 44.569V45.5886H23.6238V44.569H24.6434ZM25.663 44.569V45.5886H24.6434V44.569H25.663ZM26.6826 44.569V45.5886H25.663V44.569H26.6826ZM27.7022 44.569V45.5886H26.6826V44.569H27.7022ZM28.7218 44.569V45.5886H27.7022V44.569H28.7218ZM29.7414 44.569V45.5886H28.7218V44.569H29.7414ZM28.7218 43.5495V44.569H27.7022V43.5495H28.7218ZM27.7022 43.5495V44.569H26.6826V43.5495H27.7022ZM26.6826 43.5495V44.569H25.663V43.5495H26.6826ZM25.663 43.5495V44.569H24.6434V43.5495H25.663ZM24.6434 43.5495V44.569H23.6238V43.5495H24.6434ZM23.6238 43.5495V44.569H22.6043V43.5495H23.6238ZM22.6043 43.5495V44.569H21.5847V43.5495H22.6043ZM21.5847 43.5495V44.569H20.5651V43.5495H21.5847ZM20.5651 43.5495V44.569H19.5455V43.5495H20.5651ZM19.5455 43.5495V44.569H18.5259V43.5495H19.5455ZM21.5847 42.5299V43.5495H20.5651V42.5299H21.5847ZM22.6043 42.5299V43.5495H21.5847V42.5299H22.6043ZM23.6238 42.5299V43.5495H22.6043V42.5299H23.6238ZM31.7806 61.9021V62.9216H30.761V61.9021H31.7806ZM31.7806 62.9216V63.9412H30.761V62.9216H31.7806ZM31.7806 63.9412V64.9608H30.761V63.9412H31.7806ZM31.7806 64.9608V65.9804H30.761V64.9608H31.7806ZM31.7806 65.9804V67H30.761V65.9804H31.7806ZM30.761 65.9804V67H29.7414V65.9804H30.761ZM29.7414 65.9804V67H28.7218V65.9804H29.7414ZM28.7218 65.9804V67H27.7022V65.9804H28.7218ZM27.7022 65.9804V67H26.6826V65.9804H27.7022ZM26.6826 65.9804V67H25.663V65.9804H26.6826ZM25.663 65.9804V67H24.6434V65.9804H25.663ZM24.6434 65.9804V67H23.6238V65.9804H24.6434ZM23.6238 65.9804V67H22.6043V65.9804H23.6238ZM22.6043 65.9804V67H21.5847V65.9804H22.6043ZM21.5847 65.9804V67H20.5651V65.9804H21.5847ZM20.5651 65.9804V67H19.5455V65.9804H20.5651ZM19.5455 65.9804V67H18.5259V65.9804H19.5455ZM18.5259 65.9804V67H17.5063V65.9804H18.5259ZM17.5063 65.9804V67H16.4867V65.9804H17.5063ZM17.5063 64.9608V65.9804H16.4867V64.9608H17.5063ZM16.4867 64.9608V65.9804H15.4671V64.9608H16.4867ZM16.4867 65.9804V67H15.4671V65.9804H16.4867ZM16.4867 63.9412V64.9608H15.4671V63.9412H16.4867ZM16.4867 62.9216V63.9412H15.4671V62.9216H16.4867ZM17.5063 61.9021V62.9216H16.4867V61.9021H17.5063ZM18.5259 61.9021V62.9216H17.5063V61.9021H18.5259ZM19.5455 61.9021V62.9216H18.5259V61.9021H19.5455ZM20.5651 61.9021V62.9216H19.5455V61.9021H20.5651ZM21.5847 61.9021V62.9216H20.5651V61.9021H21.5847ZM22.6043 61.9021V62.9216H21.5847V61.9021H22.6043ZM23.6238 61.9021V62.9216H22.6043V61.9021H23.6238ZM24.6434 61.9021V62.9216H23.6238V61.9021H24.6434ZM25.663 61.9021V62.9216H24.6434V61.9021H25.663ZM26.6826 61.9021V62.9216H25.663V61.9021H26.6826ZM27.7022 61.9021V62.9216H26.6826V61.9021H27.7022ZM28.7218 61.9021V62.9216H27.7022V61.9021H28.7218ZM29.7414 61.9021V62.9216H28.7218V61.9021H29.7414ZM29.7414 62.9216V63.9412H28.7218V62.9216H29.7414ZM30.761 62.9216V63.9412H29.7414V62.9216H30.761ZM30.761 61.9021V62.9216H29.7414V61.9021H30.761ZM30.761 63.9412V64.9608H29.7414V63.9412H30.761ZM29.7414 63.9412V64.9608H28.7218V63.9412H29.7414ZM29.7414 64.9608V65.9804H28.7218V64.9608H29.7414ZM30.761 64.9608V65.9804H29.7414V64.9608H30.761ZM28.7218 64.9608V65.9804H27.7022V64.9608H28.7218ZM27.7022 64.9608V65.9804H26.6826V64.9608H27.7022ZM26.6826 64.9608V65.9804H25.663V64.9608H26.6826ZM25.663 64.9608V65.9804H24.6434V64.9608H25.663ZM24.6434 64.9608V65.9804H23.6238V64.9608H24.6434ZM23.6238 64.9608V65.9804H22.6043V64.9608H23.6238ZM22.6043 64.9608V65.9804H21.5847V64.9608H22.6043ZM21.5847 64.9608V65.9804H20.5651V64.9608H21.5847ZM20.5651 64.9608V65.9804H19.5455V64.9608H20.5651ZM19.5455 64.9608V65.9804H18.5259V64.9608H19.5455ZM18.5259 64.9608V65.9804H17.5063V64.9608H18.5259ZM18.5259 63.9412V64.9608H17.5063V63.9412H18.5259ZM17.5063 63.9412V64.9608H16.4867V63.9412H17.5063ZM17.5063 62.9216V63.9412H16.4867V62.9216H17.5063ZM18.5259 62.9216V63.9412H17.5063V62.9216H18.5259ZM19.5455 62.9216V63.9412H18.5259V62.9216H19.5455ZM20.5651 62.9216V63.9412H19.5455V62.9216H20.5651ZM21.5847 62.9216V63.9412H20.5651V62.9216H21.5847ZM22.6043 62.9216V63.9412H21.5847V62.9216H22.6043ZM28.7218 62.9216V63.9412H27.7022V62.9216H28.7218ZM27.7022 62.9216V63.9412H26.6826V62.9216H27.7022ZM26.6826 62.9216V63.9412H25.663V62.9216H26.6826ZM25.663 62.9216V63.9412H24.6434V62.9216H25.663ZM24.6434 62.9216V63.9412H23.6238V62.9216H24.6434ZM23.6238 62.9216V63.9412H22.6043V62.9216H23.6238ZM20.5651 63.9412V64.9608H19.5455V63.9412H20.5651ZM19.5455 63.9412V64.9608H18.5259V63.9412H19.5455ZM21.5847 63.9412V64.9608H20.5651V63.9412H21.5847ZM22.6043 63.9412V64.9608H21.5847V63.9412H22.6043ZM23.6238 63.9412V64.9608H22.6043V63.9412H23.6238ZM24.6434 63.9412V64.9608H23.6238V63.9412H24.6434ZM25.663 63.9412V64.9608H24.6434V63.9412H25.663ZM26.6826 63.9412V64.9608H25.663V63.9412H26.6826ZM27.7022 63.9412V64.9608H26.6826V63.9412H27.7022ZM28.7218 63.9412V64.9608H27.7022V63.9412H28.7218ZM16.4867 59.8629V60.8825H15.4671V59.8629H16.4867ZM16.4867 60.8825V61.9021H15.4671V60.8825H16.4867ZM16.4867 61.9021V62.9216H15.4671V61.9021H16.4867ZM17.5063 59.8629V60.8825H16.4867V59.8629H17.5063ZM17.5063 58.8433V59.8629H16.4867V58.8433H17.5063ZM18.5259 58.8433V59.8629H17.5063V58.8433H18.5259ZM18.5259 57.8237V58.8433H17.5063V57.8237H18.5259ZM19.5455 57.8237V58.8433H18.5259V57.8237H19.5455ZM20.5651 56.8041V57.8237H19.5455V56.8041H20.5651ZM19.5455 56.8041V57.8237H18.5259V56.8041H19.5455ZM20.5651 55.7845V56.8041H19.5455V55.7845H20.5651ZM21.5847 55.7845V56.8041H20.5651V55.7845H21.5847ZM22.6043 55.7845V56.8041H21.5847V55.7845H22.6043ZM22.6043 54.7649V55.7845H21.5847V54.7649H22.6043ZM21.5847 54.7649V55.7845H20.5651V54.7649H21.5847ZM23.6238 54.7649V55.7845H22.6043V54.7649H23.6238ZM23.6238 53.7453V54.7649H22.6043V53.7453H23.6238ZM22.6043 53.7453V54.7649H21.5847V53.7453H22.6043ZM23.6238 52.7258V53.7453H22.6043V52.7258H23.6238ZM24.6434 52.7258V53.7453H23.6238V52.7258H24.6434ZM24.6434 51.7062V52.7258H23.6238V51.7062H24.6434ZM25.663 51.7062V52.7258H24.6434V51.7062H25.663ZM26.6826 51.7062V52.7258H25.663V51.7062H26.6826ZM26.6826 50.6866V51.7062H25.663V50.6866H26.6826ZM25.663 50.6866V51.7062H24.6434V50.6866H25.663ZM26.6826 49.667V50.6866H25.663V49.667H26.6826ZM27.7022 49.667V50.6866H26.6826V49.667H27.7022ZM30.761 50.6866V51.7062H29.7414V50.6866H30.761ZM29.7414 50.6866V51.7062H28.7218V50.6866H29.7414ZM28.7218 50.6866V51.7062H27.7022V50.6866H28.7218ZM28.7218 51.7062V52.7258H27.7022V51.7062H28.7218ZM29.7414 51.7062V52.7258H28.7218V51.7062H29.7414ZM28.7218 52.7258V53.7453H27.7022V52.7258H28.7218ZM27.7022 52.7258V53.7453H26.6826V52.7258H27.7022ZM27.7022 53.7453V54.7649H26.6826V53.7453H27.7022ZM26.6826 53.7453V54.7649H25.663V53.7453H26.6826ZM26.6826 54.7649V55.7845H25.663V54.7649H26.6826ZM25.663 54.7649V55.7845H24.6434V54.7649H25.663ZM25.663 55.7845V56.8041H24.6434V55.7845H25.663ZM24.6434 55.7845V56.8041H23.6238V55.7845H24.6434ZM23.6238 55.7845V56.8041H22.6043V55.7845H23.6238ZM23.6238 56.8041V57.8237H22.6043V56.8041H23.6238ZM24.6434 56.8041V57.8237H23.6238V56.8041H24.6434ZM23.6238 57.8237V58.8433H22.6043V57.8237H23.6238ZM22.6043 57.8237V58.8433H21.5847V57.8237H22.6043ZM22.6043 58.8433V59.8629H21.5847V58.8433H22.6043ZM21.5847 58.8433V59.8629H20.5651V58.8433H21.5847ZM20.5651 58.8433V59.8629H19.5455V58.8433H20.5651ZM20.5651 59.8629V60.8825H19.5455V59.8629H20.5651ZM20.5651 60.8825V61.9021H19.5455V60.8825H20.5651ZM21.5847 59.8629V60.8825H20.5651V59.8629H21.5847ZM19.5455 60.8825V61.9021H18.5259V60.8825H19.5455ZM18.5259 60.8825V61.9021H17.5063V60.8825H18.5259ZM17.5063 60.8825V61.9021H16.4867V60.8825H17.5063ZM18.5259 59.8629V60.8825H17.5063V59.8629H18.5259ZM19.5455 59.8629V60.8825H18.5259V59.8629H19.5455ZM19.5455 58.8433V59.8629H18.5259V58.8433H19.5455ZM20.5651 57.8237V58.8433H19.5455V57.8237H20.5651ZM21.5847 57.8237V58.8433H20.5651V57.8237H21.5847ZM21.5847 56.8041V57.8237H20.5651V56.8041H21.5847ZM22.6043 56.8041V57.8237H21.5847V56.8041H22.6043ZM24.6434 53.7453V54.7649H23.6238V53.7453H24.6434ZM25.663 53.7453V54.7649H24.6434V53.7453H25.663ZM25.663 52.7258V53.7453H24.6434V52.7258H25.663ZM26.6826 52.7258V53.7453H25.663V52.7258H26.6826ZM27.7022 51.7062V52.7258H26.6826V51.7062H27.7022ZM24.6434 54.7649V55.7845H23.6238V54.7649H24.6434ZM27.7022 50.6866V51.7062H26.6826V50.6866H27.7022Z" fill="black"/>
<line x1="78.8167" y1="57.5297" x2="110.174" y2="57.5641" stroke="black" stroke-width="2.40927"/>
</svg>
