<svg width="62" height="61" viewBox="0 0 62 61" fill="none" xmlns="http://www.w3.org/2000/svg">
<path d="M10.7056 32.9989C10.7056 28.2154 10.7056 25.8236 12.1916 24.3376C13.6776 22.8516 16.0694 22.8516 20.8529 22.8516H41.1474C45.9309 22.8516 48.3226 22.8516 49.8087 24.3376C51.2947 25.8236 51.2947 28.2154 51.2947 32.9988V38.0725C51.2947 45.2477 51.2947 48.8353 49.0657 51.0644C46.8366 53.2934 43.249 53.2934 36.0738 53.2934H25.9265C18.7513 53.2934 15.1637 53.2934 12.9346 51.0644C10.7056 48.8353 10.7056 45.2477 10.7056 38.0725V32.9989Z" stroke="white" stroke-width="5.07364"/>
<path d="M41.1471 20.3169V17.7801C41.1471 12.1759 36.604 7.63281 30.9998 7.63281V7.63281C25.3956 7.63281 20.8525 12.1759 20.8525 17.7801V20.3169" stroke="white" stroke-width="5.07364" stroke-linecap="round"/>
<circle cx="30.9999" cy="38.0736" r="5.07364" fill="white"/>
</svg>
