<svg width="58" height="58" viewBox="0 0 58 58" fill="none" xmlns="http://www.w3.org/2000/svg">
<path d="M9.66699 31.4135C9.66699 26.8566 9.66699 24.5781 11.0826 23.1625C12.4983 21.7468 14.7767 21.7468 19.3337 21.7468H38.667C43.2239 21.7468 45.5024 21.7468 46.918 23.1625C48.3337 24.5781 48.3337 26.8566 48.3337 31.4135V36.2468C48.3337 43.0822 48.3337 46.4999 46.2102 48.6233C44.0867 50.7468 40.669 50.7468 33.8337 50.7468H24.167C17.3316 50.7468 13.9139 50.7468 11.7905 48.6233C9.66699 46.4999 9.66699 43.0822 9.66699 36.2468V31.4135Z" stroke="#B40033" stroke-width="4.83333"/>
<path d="M39.8755 21.7393L40.0629 20.2395C40.6887 15.2332 38.4359 10.3022 34.2418 7.49792V7.49792C29.248 4.15891 22.6382 4.57045 18.0971 8.50315L16.1195 10.2158" stroke="#B40033" stroke-width="4.83333" stroke-linecap="round"/>
<circle cx="28.9998" cy="36.25" r="4.83333" fill="#B40033"/>
</svg>
