<svg width="98" height="94" viewBox="0 0 98 94" fill="none" xmlns="http://www.w3.org/2000/svg">
<path d="M24.1731 48.2566L29.8109 56.0058L33.703 47.2487L24.1731 48.2566ZM69.8468 67.6479L31.3356 50.5318L30.6615 52.0486L69.1727 69.1646L69.8468 67.6479Z" fill="black"/>
<rect x="40.9639" y="52.1719" width="12.3137" height="12.3137" fill="white"/>
<path d="M51.3949 52.1766V52.7639H51.9822V52.1766H51.3949ZM50.8076 52.1766V52.7639H51.3949V52.1766H50.8076ZM50.2202 52.1766V52.7639H50.8076V52.1766H50.2202ZM50.2202 52.7639V53.3512H50.8076V52.7639H50.2202ZM49.6329 52.7639V53.3512H50.2202V52.7639H49.6329ZM49.0456 53.3512V53.9386H49.6329V53.3512H49.0456ZM49.0456 53.9386V54.5259H49.6329V53.9386H49.0456ZM49.0456 52.7639V53.3512H49.6329V52.7639H49.0456ZM49.0456 52.1766V52.7639H49.6329V52.1766H49.0456ZM49.6329 52.1766V52.7639H50.2202V52.1766H49.6329ZM50.8076 52.7639V53.3512H51.3949V52.7639H50.8076ZM50.8076 53.3512V53.9386H51.3949V53.3512H50.8076ZM51.3949 53.3512V53.9386H51.9822V53.3512H51.3949ZM51.3949 52.7639V53.3512H51.9822V52.7639H51.3949ZM51.3949 53.9386V54.5259H51.9822V53.9386H51.3949ZM51.3949 54.5259V55.1132H51.9822V54.5259H51.3949ZM51.3949 55.1132V55.7006H51.9822V55.1132H51.3949ZM50.8076 55.1132V55.7006H51.3949V55.1132H50.8076ZM50.2202 55.1132V55.7006H50.8076V55.1132H50.2202ZM49.6329 55.1132V55.7006H50.2202V55.1132H49.6329ZM49.0456 55.1132V55.7006H49.6329V55.1132H49.0456ZM49.0456 54.5259V55.1132H49.6329V54.5259H49.0456ZM49.6329 54.5259V55.1132H50.2202V54.5259H49.6329ZM49.6329 53.9386V54.5259H50.2202V53.9386H49.6329ZM49.6329 53.3512V53.9386H50.2202V53.3512H49.6329ZM50.2202 53.3512V53.9386H50.8076V53.3512H50.2202ZM50.2202 53.9386V54.5259H50.8076V53.9386H50.2202ZM50.8076 53.9386V54.5259H51.3949V53.9386H50.8076ZM50.8076 54.5259V55.1132H51.3949V54.5259H50.8076ZM50.2202 54.5259V55.1132H50.8076V54.5259H50.2202ZM50.8076 55.7006V56.2879H51.3949V55.7006H50.8076ZM50.2202 55.7006V56.2879H50.8076V55.7006H50.2202ZM50.2202 56.2879V56.8753H50.8076V56.2879H50.2202ZM49.6329 56.2879V56.8753H50.2202V56.2879H49.6329ZM49.6329 56.8753V57.4626H50.2202V56.8753H49.6329ZM49.0456 56.8753V57.4626H49.6329V56.8753H49.0456ZM49.0456 57.4626V58.0499H49.6329V57.4626H49.0456ZM49.0456 58.0499V58.6373H49.6329V58.0499H49.0456ZM49.0456 58.6373V59.2246H49.6329V58.6373H49.0456ZM49.6329 58.6373V59.2246H50.2202V58.6373H49.6329ZM49.6329 58.0499V58.6373H50.2202V58.0499H49.6329ZM50.2202 59.2246V59.8119H50.8076V59.2246H50.2202ZM50.2202 58.6373V59.2246H50.8076V58.6373H50.2202ZM50.2202 59.8119V60.3993H50.8076V59.8119H50.2202ZM50.8076 59.8119V60.3993H51.3949V59.8119H50.8076ZM50.8076 59.2246V59.8119H51.3949V59.2246H50.8076ZM51.3949 59.8119V60.3993H51.9822V59.8119H51.3949ZM50.2202 60.3993V60.9866H50.8076V60.3993H50.2202ZM49.6329 60.3993V60.9866H50.2202V60.3993H49.6329ZM49.0456 60.3993V60.9866H49.6329V60.3993H49.0456ZM49.0456 59.8119V60.3993H49.6329V59.8119H49.0456ZM48.4582 59.8119V60.3993H49.0456V59.8119H48.4582ZM48.4582 59.2246V59.8119H49.0456V59.2246H48.4582ZM47.8709 59.2246V59.8119H48.4582V59.2246H47.8709ZM47.8709 58.6373V59.2246H48.4582V58.6373H47.8709ZM47.2836 58.6373V59.2246H47.8709V58.6373H47.2836ZM46.6962 58.6373V59.2246H47.2836V58.6373H46.6962ZM46.1089 58.6373V59.2246H46.6962V58.6373H46.1089ZM46.1089 59.2246V59.8119H46.6962V59.2246H46.1089ZM45.5216 59.2246V59.8119H46.1089V59.2246H45.5216ZM45.5216 59.8119V60.3993H46.1089V59.8119H45.5216ZM44.9342 59.8119V60.3993H45.5216V59.8119H44.9342ZM44.9342 60.3993V60.9866H45.5216V60.3993H44.9342ZM44.3469 60.3993V60.9866H44.9342V60.3993H44.3469ZM44.3469 59.8119V60.3993H44.9342V59.8119H44.3469ZM43.7596 59.8119V60.3993H44.3469V59.8119H43.7596ZM43.1722 59.8119V60.3993H43.7596V59.8119H43.1722ZM42.5849 59.8119V60.3993H43.1722V59.8119H42.5849ZM42.5849 60.3993V60.9866H43.1722V60.3993H42.5849ZM43.1722 59.2246V59.8119H43.7596V59.2246H43.1722ZM43.7596 59.2246V59.8119H44.3469V59.2246H43.7596ZM43.7596 58.6373V59.2246H44.3469V58.6373H43.7596ZM44.3469 58.6373V59.2246H44.9342V58.6373H44.3469ZM44.9342 58.6373V59.2246H45.5216V58.6373H44.9342ZM44.9342 58.0499V58.6373H45.5216V58.0499H44.9342ZM45.5216 58.6373V59.2246H46.1089V58.6373H45.5216ZM44.3469 59.2246V59.8119H44.9342V59.2246H44.3469ZM44.9342 59.2246V59.8119H45.5216V59.2246H44.9342ZM47.8709 57.4626V58.0499H48.4582V57.4626H47.8709ZM47.2836 57.4626V58.0499H47.8709V57.4626H47.2836ZM46.6962 57.4626V58.0499H47.2836V57.4626H46.6962ZM46.1089 57.4626V58.0499H46.6962V57.4626H46.1089ZM45.5216 57.4626V58.0499H46.1089V57.4626H45.5216ZM44.9342 57.4626V58.0499H45.5216V57.4626H44.9342ZM45.5216 58.0499V58.6373H46.1089V58.0499H45.5216ZM46.1089 58.0499V58.6373H46.6962V58.0499H46.1089ZM46.6962 58.0499V58.6373H47.2836V58.0499H46.6962ZM47.2836 58.0499V58.6373H47.8709V58.0499H47.2836ZM47.8709 58.0499V58.6373H48.4582V58.0499H47.8709ZM48.4582 58.0499V58.6373H49.0456V58.0499H48.4582ZM48.4582 57.4626V58.0499H49.0456V57.4626H48.4582ZM48.4582 58.6373V59.2246H49.0456V58.6373H48.4582ZM49.0456 59.2246V59.8119H49.6329V59.2246H49.0456ZM49.6329 59.8119V60.3993H50.2202V59.8119H49.6329ZM49.6329 59.2246V59.8119H50.2202V59.2246H49.6329ZM44.3469 58.0499V58.6373H44.9342V58.0499H44.3469ZM44.3469 56.8753V57.4626H44.9342V56.8753H44.3469ZM44.3469 56.2879V56.8753H44.9342V56.2879H44.3469ZM43.7596 56.2879V56.8753H44.3469V56.2879H43.7596ZM43.7596 55.7006V56.2879H44.3469V55.7006H43.7596ZM43.1722 55.7006V56.2879H43.7596V55.7006H43.1722ZM43.1722 55.1132V55.7006H43.7596V55.1132H43.1722ZM42.5849 55.1132V55.7006H43.1722V55.1132H42.5849ZM42.5849 54.5259V55.1132H43.1722V54.5259H42.5849ZM42.5849 53.9386V54.5259H43.1722V53.9386H42.5849ZM42.5849 53.3512V53.9386H43.1722V53.3512H42.5849ZM42.5849 52.7639V53.3512H43.1722V52.7639H42.5849ZM42.5849 52.1766V52.7639H43.1722V52.1766H42.5849ZM43.1722 52.1766V52.7639H43.7596V52.1766H43.1722ZM43.7596 52.1766V52.7639H44.3469V52.1766H43.7596ZM44.3469 52.1766V52.7639H44.9342V52.1766H44.3469ZM44.9342 52.1766V52.7639H45.5216V52.1766H44.9342ZM44.9342 52.7639V53.3512H45.5216V52.7639H44.9342ZM44.9342 53.3512V53.9386H45.5216V53.3512H44.9342ZM44.9342 53.9386V54.5259H45.5216V53.9386H44.9342ZM44.9342 54.5259V55.1132H45.5216V54.5259H44.9342ZM44.9342 55.1132V55.7006H45.5216V55.1132H44.9342ZM45.5216 55.1132V55.7006H46.1089V55.1132H45.5216ZM45.5216 55.7006V56.2879H46.1089V55.7006H45.5216ZM46.1089 55.7006V56.2879H46.6962V55.7006H46.1089ZM46.1089 56.2879V56.8753H46.6962V56.2879H46.1089ZM46.6962 56.2879V56.8753H47.2836V56.2879H46.6962ZM47.2836 56.2879V56.8753H47.8709V56.2879H47.2836ZM47.8709 55.7006V56.2879H48.4582V55.7006H47.8709ZM48.4582 55.7006V56.2879H49.0456V55.7006H48.4582ZM48.4582 55.1132V55.7006H49.0456V55.1132H48.4582ZM49.0456 55.7006V56.2879H49.6329V55.7006H49.0456ZM49.6329 55.7006V56.2879H50.2202V55.7006H49.6329ZM49.0456 56.2879V56.8753H49.6329V56.2879H49.0456ZM48.4582 56.2879V56.8753H49.0456V56.2879H48.4582ZM47.8709 56.2879V56.8753H48.4582V56.2879H47.8709ZM47.8709 56.8753V57.4626H48.4582V56.8753H47.8709ZM48.4582 56.8753V57.4626H49.0456V56.8753H48.4582ZM47.2836 56.8753V57.4626H47.8709V56.8753H47.2836ZM46.6962 56.8753V57.4626H47.2836V56.8753H46.6962ZM46.1089 56.8753V57.4626H46.6962V56.8753H46.1089ZM45.5216 56.8753V57.4626H46.1089V56.8753H45.5216ZM44.9342 56.8753V57.4626H45.5216V56.8753H44.9342ZM44.9342 56.2879V56.8753H45.5216V56.2879H44.9342ZM45.5216 56.2879V56.8753H46.1089V56.2879H45.5216ZM44.3469 52.7639V53.3512H44.9342V52.7639H44.3469ZM43.7596 52.7639V53.3512H44.3469V52.7639H43.7596ZM43.1722 52.7639V53.3512H43.7596V52.7639H43.1722ZM43.1722 53.3512V53.9386H43.7596V53.3512H43.1722ZM43.1722 53.9386V54.5259H43.7596V53.9386H43.1722ZM43.1722 54.5259V55.1132H43.7596V54.5259H43.1722ZM43.7596 54.5259V55.1132H44.3469V54.5259H43.7596ZM43.7596 53.9386V54.5259H44.3469V53.9386H43.7596ZM43.7596 53.3512V53.9386H44.3469V53.3512H43.7596ZM44.3469 53.3512V53.9386H44.9342V53.3512H44.3469ZM44.3469 53.9386V54.5259H44.9342V53.9386H44.3469ZM44.3469 54.5259V55.1132H44.9342V54.5259H44.3469ZM44.3469 55.1132V55.7006H44.9342V55.1132H44.3469ZM43.7596 55.1132V55.7006H44.3469V55.1132H43.7596ZM44.3469 55.7006V56.2879H44.9342V55.7006H44.3469ZM44.9342 55.7006V56.2879H45.5216V55.7006H44.9342ZM51.3949 60.3993V60.9866H51.9822V60.3993H51.3949ZM50.8076 60.3993V60.9866H51.3949V60.3993H50.8076ZM43.7596 60.3993V60.9866H44.3469V60.3993H43.7596ZM43.1722 60.3993V60.9866H43.7596V60.3993H43.1722ZM44.9342 60.9866V61.5739H45.5216V60.9866H44.9342ZM44.9342 61.5739V62.1613H45.5216V61.5739H44.9342ZM44.9342 62.1613V62.7486H45.5216V62.1613H44.9342ZM44.9342 62.7486V63.3359H45.5216V62.7486H44.9342ZM44.3469 62.7486V63.3359H44.9342V62.7486H44.3469ZM43.7596 62.7486V63.3359H44.3469V62.7486H43.7596ZM43.1722 62.7486V63.3359H43.7596V62.7486H43.1722ZM42.5849 62.7486V63.3359H43.1722V62.7486H42.5849ZM42.5849 62.1613V62.7486H43.1722V62.1613H42.5849ZM42.5849 61.5739V62.1613H43.1722V61.5739H42.5849ZM42.5849 60.9866V61.5739H43.1722V60.9866H42.5849ZM43.1722 60.9866V61.5739H43.7596V60.9866H43.1722ZM43.7596 60.9866V61.5739H44.3469V60.9866H43.7596ZM44.3469 60.9866V61.5739H44.9342V60.9866H44.3469ZM44.3469 61.5739V62.1613H44.9342V61.5739H44.3469ZM44.3469 62.1613V62.7486H44.9342V62.1613H44.3469ZM43.7596 62.1613V62.7486H44.3469V62.1613H43.7596ZM43.1722 62.1613V62.7486H43.7596V62.1613H43.1722ZM43.1722 61.5739V62.1613H43.7596V61.5739H43.1722ZM43.7596 61.5739V62.1613H44.3469V61.5739H43.7596ZM51.3949 60.9866V61.5739H51.9822V60.9866H51.3949ZM51.3949 61.5739V62.1613H51.9822V61.5739H51.3949ZM51.3949 62.1613V62.7486H51.9822V62.1613H51.3949ZM50.8076 62.1613V62.7486H51.3949V62.1613H50.8076ZM50.8076 62.7486V63.3359H51.3949V62.7486H50.8076ZM51.3949 62.7486V63.3359H51.9822V62.7486H51.3949ZM50.2202 62.7486V63.3359H50.8076V62.7486H50.2202ZM49.6329 62.7486V63.3359H50.2202V62.7486H49.6329ZM49.0456 62.7486V63.3359H49.6329V62.7486H49.0456ZM49.0456 62.1613V62.7486H49.6329V62.1613H49.0456ZM49.0456 61.5739V62.1613H49.6329V61.5739H49.0456ZM49.0456 60.9866V61.5739H49.6329V60.9866H49.0456ZM49.6329 60.9866V61.5739H50.2202V60.9866H49.6329ZM49.6329 61.5739V62.1613H50.2202V61.5739H49.6329ZM49.6329 62.1613V62.7486H50.2202V62.1613H49.6329ZM50.2202 62.1613V62.7486H50.8076V62.1613H50.2202ZM50.2202 61.5739V62.1613H50.8076V61.5739H50.2202ZM50.2202 60.9866V61.5739H50.8076V60.9866H50.2202ZM50.8076 61.5739V62.1613H51.3949V61.5739H50.8076ZM50.8076 60.9866V61.5739H51.3949V60.9866H50.8076Z" fill="#FF497C"/>
<path d="M78.3947 14.6278V15.6474H77.3751V14.6278H78.3947ZM77.3751 14.6278V15.6474H76.3555V14.6278H77.3751ZM76.3555 14.6278V15.6474H75.3359V14.6278H76.3555ZM75.3359 14.6278V15.6474H74.3163V14.6278H75.3359ZM74.3163 14.6278V15.6474H73.2967V14.6278H74.3163ZM74.3163 13.6082V14.6278H73.2967V13.6082H74.3163ZM74.3163 12.5886V13.6082H73.2967V12.5886H74.3163ZM75.3359 12.5886V13.6082H74.3163V12.5886H75.3359ZM75.3359 11.569V12.5886H74.3163V11.569H75.3359ZM75.3359 10.5495V11.569H74.3163V10.5495H75.3359ZM76.3555 10.5495V11.569H75.3359V10.5495H76.3555ZM76.3555 9.52987V10.5495H75.3359V9.52987H76.3555ZM77.3751 9.52987V10.5495H76.3555V9.52987H77.3751ZM78.3947 9.52987V10.5495H77.3751V9.52987H78.3947ZM78.3947 8.51028V9.52987H77.3751V8.51028H78.3947ZM79.4142 8.51028V9.52987H78.3947V8.51028H79.4142ZM80.4338 8.51028V9.52987H79.4142V8.51028H80.4338ZM81.4534 8.51028V9.52987H80.4338V8.51028H81.4534ZM82.473 8.51028V9.52987H81.4534V8.51028H82.473ZM82.473 9.52987V10.5495H81.4534V9.52987H82.473ZM83.4926 9.52987V10.5495H82.473V9.52987H83.4926ZM84.5122 9.52987V10.5495H83.4926V9.52987H84.5122ZM84.5122 8.51028V9.52987H83.4926V8.51028H84.5122ZM85.5318 8.51028V9.52987H84.5122V8.51028H85.5318ZM83.4926 8.51028V9.52987H82.473V8.51028H83.4926ZM85.5318 9.52987V10.5495H84.5122V9.52987H85.5318ZM86.5514 9.52987V10.5495H85.5318V9.52987H86.5514ZM87.571 9.52987V10.5495H86.5514V9.52987H87.571ZM87.571 10.5495V11.569H86.5514V10.5495H87.571ZM88.5905 10.5495V11.569H87.571V10.5495H88.5905ZM88.5905 11.569V12.5886H87.571V11.569H88.5905ZM88.5905 12.5886V13.6082H87.571V12.5886H88.5905ZM89.6101 12.5886V13.6082H88.5905V12.5886H89.6101ZM89.6101 13.6082V14.6278H88.5905V13.6082H89.6101ZM89.6101 14.6278V15.6474H88.5905V14.6278H89.6101ZM89.6101 15.6474V16.667H88.5905V15.6474H89.6101ZM89.6101 16.667V17.6866H88.5905V16.667H89.6101ZM88.5905 16.667V17.6866H87.571V16.667H88.5905ZM87.571 16.667V17.6866H86.5514V16.667H87.571ZM86.5514 16.667V17.6866H85.5318V16.667H86.5514ZM86.5514 15.6474V16.667H85.5318V15.6474H86.5514ZM85.5318 15.6474V16.667H84.5122V15.6474H85.5318ZM85.5318 14.6278V15.6474H84.5122V14.6278H85.5318ZM85.5318 13.6082V14.6278H84.5122V13.6082H85.5318ZM86.5514 13.6082V14.6278H85.5318V13.6082H86.5514ZM87.571 13.6082V14.6278H86.5514V13.6082H87.571ZM88.5905 13.6082V14.6278H87.571V13.6082H88.5905ZM88.5905 14.6278V15.6474H87.571V14.6278H88.5905ZM88.5905 15.6474V16.667H87.571V15.6474H88.5905ZM87.571 14.6278V15.6474H86.5514V14.6278H87.571ZM86.5514 14.6278V15.6474H85.5318V14.6278H86.5514ZM87.571 15.6474V16.667H86.5514V15.6474H87.571ZM87.571 12.5886V13.6082H86.5514V12.5886H87.571ZM86.5514 12.5886V13.6082H85.5318V12.5886H86.5514ZM85.5318 12.5886V13.6082H84.5122V12.5886H85.5318ZM84.5122 12.5886V13.6082H83.4926V12.5886H84.5122ZM84.5122 13.6082V14.6278H83.4926V13.6082H84.5122ZM83.4926 12.5886V13.6082H82.473V12.5886H83.4926ZM82.473 12.5886V13.6082H81.4534V12.5886H82.473ZM81.4534 12.5886V13.6082H80.4338V12.5886H81.4534ZM80.4338 12.5886V13.6082H79.4142V12.5886H80.4338ZM79.4142 12.5886V13.6082H78.3947V12.5886H79.4142ZM79.4142 13.6082V14.6278H78.3947V13.6082H79.4142ZM78.3947 13.6082V14.6278H77.3751V13.6082H78.3947ZM77.3751 13.6082V14.6278H76.3555V13.6082H77.3751ZM76.3555 13.6082V14.6278H75.3359V13.6082H76.3555ZM75.3359 13.6082V14.6278H74.3163V13.6082H75.3359ZM76.3555 12.5886V13.6082H75.3359V12.5886H76.3555ZM77.3751 12.5886V13.6082H76.3555V12.5886H77.3751ZM78.3947 12.5886V13.6082H77.3751V12.5886H78.3947ZM76.3555 11.569V12.5886H75.3359V11.569H76.3555ZM77.3751 11.569V12.5886H76.3555V11.569H77.3751ZM78.3947 11.569V12.5886H77.3751V11.569H78.3947ZM79.4142 11.569V12.5886H78.3947V11.569H79.4142ZM80.4338 11.569V12.5886H79.4142V11.569H80.4338ZM81.4534 11.569V12.5886H80.4338V11.569H81.4534ZM82.473 11.569V12.5886H81.4534V11.569H82.473ZM83.4926 11.569V12.5886H82.473V11.569H83.4926ZM84.5122 11.569V12.5886H83.4926V11.569H84.5122ZM85.5318 11.569V12.5886H84.5122V11.569H85.5318ZM86.5514 11.569V12.5886H85.5318V11.569H86.5514ZM87.571 11.569V12.5886H86.5514V11.569H87.571ZM86.5514 10.5495V11.569H85.5318V10.5495H86.5514ZM85.5318 10.5495V11.569H84.5122V10.5495H85.5318ZM84.5122 10.5495V11.569H83.4926V10.5495H84.5122ZM83.4926 10.5495V11.569H82.473V10.5495H83.4926ZM82.473 10.5495V11.569H81.4534V10.5495H82.473ZM81.4534 10.5495V11.569H80.4338V10.5495H81.4534ZM80.4338 10.5495V11.569H79.4142V10.5495H80.4338ZM79.4142 10.5495V11.569H78.3947V10.5495H79.4142ZM78.3947 10.5495V11.569H77.3751V10.5495H78.3947ZM77.3751 10.5495V11.569H76.3555V10.5495H77.3751ZM79.4142 9.52987V10.5495H78.3947V9.52987H79.4142ZM80.4338 9.52987V10.5495H79.4142V9.52987H80.4338ZM81.4534 9.52987V10.5495H80.4338V9.52987H81.4534ZM89.6101 28.9021V29.9216H88.5905V28.9021H89.6101ZM89.6101 29.9216V30.9412H88.5905V29.9216H89.6101ZM89.6101 30.9412V31.9608H88.5905V30.9412H89.6101ZM89.6101 31.9608V32.9804H88.5905V31.9608H89.6101ZM89.6101 32.9804V34H88.5905V32.9804H89.6101ZM88.5905 32.9804V34H87.571V32.9804H88.5905ZM87.571 32.9804V34H86.5514V32.9804H87.571ZM86.5514 32.9804V34H85.5318V32.9804H86.5514ZM85.5318 32.9804V34H84.5122V32.9804H85.5318ZM84.5122 32.9804V34H83.4926V32.9804H84.5122ZM83.4926 32.9804V34H82.473V32.9804H83.4926ZM82.473 32.9804V34H81.4534V32.9804H82.473ZM81.4534 32.9804V34H80.4338V32.9804H81.4534ZM80.4338 32.9804V34H79.4142V32.9804H80.4338ZM79.4142 32.9804V34H78.3947V32.9804H79.4142ZM78.3947 32.9804V34H77.3751V32.9804H78.3947ZM77.3751 32.9804V34H76.3555V32.9804H77.3751ZM76.3555 32.9804V34H75.3359V32.9804H76.3555ZM75.3359 32.9804V34H74.3163V32.9804H75.3359ZM75.3359 31.9608V32.9804H74.3163V31.9608H75.3359ZM74.3163 31.9608V32.9804H73.2967V31.9608H74.3163ZM74.3163 32.9804V34H73.2967V32.9804H74.3163ZM74.3163 30.9412V31.9608H73.2967V30.9412H74.3163ZM74.3163 29.9216V30.9412H73.2967V29.9216H74.3163ZM75.3359 28.9021V29.9216H74.3163V28.9021H75.3359ZM76.3555 28.9021V29.9216H75.3359V28.9021H76.3555ZM77.3751 28.9021V29.9216H76.3555V28.9021H77.3751ZM78.3947 28.9021V29.9216H77.3751V28.9021H78.3947ZM79.4142 28.9021V29.9216H78.3947V28.9021H79.4142ZM80.4338 28.9021V29.9216H79.4142V28.9021H80.4338ZM81.4534 28.9021V29.9216H80.4338V28.9021H81.4534ZM82.473 28.9021V29.9216H81.4534V28.9021H82.473ZM83.4926 28.9021V29.9216H82.473V28.9021H83.4926ZM84.5122 28.9021V29.9216H83.4926V28.9021H84.5122ZM85.5318 28.9021V29.9216H84.5122V28.9021H85.5318ZM86.5514 28.9021V29.9216H85.5318V28.9021H86.5514ZM87.571 28.9021V29.9216H86.5514V28.9021H87.571ZM87.571 29.9216V30.9412H86.5514V29.9216H87.571ZM88.5905 29.9216V30.9412H87.571V29.9216H88.5905ZM88.5905 28.9021V29.9216H87.571V28.9021H88.5905ZM88.5905 30.9412V31.9608H87.571V30.9412H88.5905ZM87.571 30.9412V31.9608H86.5514V30.9412H87.571ZM87.571 31.9608V32.9804H86.5514V31.9608H87.571ZM88.5905 31.9608V32.9804H87.571V31.9608H88.5905ZM86.5514 31.9608V32.9804H85.5318V31.9608H86.5514ZM85.5318 31.9608V32.9804H84.5122V31.9608H85.5318ZM84.5122 31.9608V32.9804H83.4926V31.9608H84.5122ZM83.4926 31.9608V32.9804H82.473V31.9608H83.4926ZM82.473 31.9608V32.9804H81.4534V31.9608H82.473ZM81.4534 31.9608V32.9804H80.4338V31.9608H81.4534ZM80.4338 31.9608V32.9804H79.4142V31.9608H80.4338ZM79.4142 31.9608V32.9804H78.3947V31.9608H79.4142ZM78.3947 31.9608V32.9804H77.3751V31.9608H78.3947ZM77.3751 31.9608V32.9804H76.3555V31.9608H77.3751ZM76.3555 31.9608V32.9804H75.3359V31.9608H76.3555ZM76.3555 30.9412V31.9608H75.3359V30.9412H76.3555ZM75.3359 30.9412V31.9608H74.3163V30.9412H75.3359ZM75.3359 29.9216V30.9412H74.3163V29.9216H75.3359ZM76.3555 29.9216V30.9412H75.3359V29.9216H76.3555ZM77.3751 29.9216V30.9412H76.3555V29.9216H77.3751ZM78.3947 29.9216V30.9412H77.3751V29.9216H78.3947ZM79.4142 29.9216V30.9412H78.3947V29.9216H79.4142ZM80.4338 29.9216V30.9412H79.4142V29.9216H80.4338ZM86.5514 29.9216V30.9412H85.5318V29.9216H86.5514ZM85.5318 29.9216V30.9412H84.5122V29.9216H85.5318ZM84.5122 29.9216V30.9412H83.4926V29.9216H84.5122ZM83.4926 29.9216V30.9412H82.473V29.9216H83.4926ZM82.473 29.9216V30.9412H81.4534V29.9216H82.473ZM81.4534 29.9216V30.9412H80.4338V29.9216H81.4534ZM78.3947 30.9412V31.9608H77.3751V30.9412H78.3947ZM77.3751 30.9412V31.9608H76.3555V30.9412H77.3751ZM79.4142 30.9412V31.9608H78.3947V30.9412H79.4142ZM80.4338 30.9412V31.9608H79.4142V30.9412H80.4338ZM81.4534 30.9412V31.9608H80.4338V30.9412H81.4534ZM82.473 30.9412V31.9608H81.4534V30.9412H82.473ZM83.4926 30.9412V31.9608H82.473V30.9412H83.4926ZM84.5122 30.9412V31.9608H83.4926V30.9412H84.5122ZM85.5318 30.9412V31.9608H84.5122V30.9412H85.5318ZM86.5514 30.9412V31.9608H85.5318V30.9412H86.5514ZM74.3163 26.8629V27.8825H73.2967V26.8629H74.3163ZM74.3163 27.8825V28.9021H73.2967V27.8825H74.3163ZM74.3163 28.9021V29.9216H73.2967V28.9021H74.3163ZM75.3359 26.8629V27.8825H74.3163V26.8629H75.3359ZM75.3359 25.8433V26.8629H74.3163V25.8433H75.3359ZM76.3555 25.8433V26.8629H75.3359V25.8433H76.3555ZM76.3555 24.8237V25.8433H75.3359V24.8237H76.3555ZM77.3751 24.8237V25.8433H76.3555V24.8237H77.3751ZM78.3947 23.8041V24.8237H77.3751V23.8041H78.3947ZM77.3751 23.8041V24.8237H76.3555V23.8041H77.3751ZM78.3947 22.7845V23.8041H77.3751V22.7845H78.3947ZM79.4142 22.7845V23.8041H78.3947V22.7845H79.4142ZM80.4338 22.7845V23.8041H79.4142V22.7845H80.4338ZM80.4338 21.7649V22.7845H79.4142V21.7649H80.4338ZM79.4142 21.7649V22.7845H78.3947V21.7649H79.4142ZM81.4534 21.7649V22.7845H80.4338V21.7649H81.4534ZM81.4534 20.7453V21.7649H80.4338V20.7453H81.4534ZM80.4338 20.7453V21.7649H79.4142V20.7453H80.4338ZM81.4534 19.7258V20.7453H80.4338V19.7258H81.4534ZM82.473 19.7258V20.7453H81.4534V19.7258H82.473ZM82.473 18.7062V19.7258H81.4534V18.7062H82.473ZM83.4926 18.7062V19.7258H82.473V18.7062H83.4926ZM84.5122 18.7062V19.7258H83.4926V18.7062H84.5122ZM84.5122 17.6866V18.7062H83.4926V17.6866H84.5122ZM83.4926 17.6866V18.7062H82.473V17.6866H83.4926ZM84.5122 16.667V17.6866H83.4926V16.667H84.5122ZM85.5318 16.667V17.6866H84.5122V16.667H85.5318ZM88.5905 17.6866V18.7062H87.571V17.6866H88.5905ZM87.571 17.6866V18.7062H86.5514V17.6866H87.571ZM86.5514 17.6866V18.7062H85.5318V17.6866H86.5514ZM86.5514 18.7062V19.7258H85.5318V18.7062H86.5514ZM87.571 18.7062V19.7258H86.5514V18.7062H87.571ZM86.5514 19.7258V20.7453H85.5318V19.7258H86.5514ZM85.5318 19.7258V20.7453H84.5122V19.7258H85.5318ZM85.5318 20.7453V21.7649H84.5122V20.7453H85.5318ZM84.5122 20.7453V21.7649H83.4926V20.7453H84.5122ZM84.5122 21.7649V22.7845H83.4926V21.7649H84.5122ZM83.4926 21.7649V22.7845H82.473V21.7649H83.4926ZM83.4926 22.7845V23.8041H82.473V22.7845H83.4926ZM82.473 22.7845V23.8041H81.4534V22.7845H82.473ZM81.4534 22.7845V23.8041H80.4338V22.7845H81.4534ZM81.4534 23.8041V24.8237H80.4338V23.8041H81.4534ZM82.473 23.8041V24.8237H81.4534V23.8041H82.473ZM81.4534 24.8237V25.8433H80.4338V24.8237H81.4534ZM80.4338 24.8237V25.8433H79.4142V24.8237H80.4338ZM80.4338 25.8433V26.8629H79.4142V25.8433H80.4338ZM79.4142 25.8433V26.8629H78.3947V25.8433H79.4142ZM78.3947 25.8433V26.8629H77.3751V25.8433H78.3947ZM78.3947 26.8629V27.8825H77.3751V26.8629H78.3947ZM78.3947 27.8825V28.9021H77.3751V27.8825H78.3947ZM79.4142 26.8629V27.8825H78.3947V26.8629H79.4142ZM77.3751 27.8825V28.9021H76.3555V27.8825H77.3751ZM76.3555 27.8825V28.9021H75.3359V27.8825H76.3555ZM75.3359 27.8825V28.9021H74.3163V27.8825H75.3359ZM76.3555 26.8629V27.8825H75.3359V26.8629H76.3555ZM77.3751 26.8629V27.8825H76.3555V26.8629H77.3751ZM77.3751 25.8433V26.8629H76.3555V25.8433H77.3751ZM78.3947 24.8237V25.8433H77.3751V24.8237H78.3947ZM79.4142 24.8237V25.8433H78.3947V24.8237H79.4142ZM79.4142 23.8041V24.8237H78.3947V23.8041H79.4142ZM80.4338 23.8041V24.8237H79.4142V23.8041H80.4338ZM82.473 20.7453V21.7649H81.4534V20.7453H82.473ZM83.4926 20.7453V21.7649H82.473V20.7453H83.4926ZM83.4926 19.7258V20.7453H82.473V19.7258H83.4926ZM84.5122 19.7258V20.7453H83.4926V19.7258H84.5122ZM85.5318 18.7062V19.7258H84.5122V18.7062H85.5318ZM82.473 21.7649V22.7845H81.4534V21.7649H82.473ZM85.5318 17.6866V18.7062H84.5122V17.6866H85.5318Z" fill="#C0C0C0"/>
<path d="M83.7866 60.7486V61.7682H82.7671V60.7486H83.7866ZM83.7866 61.7682V62.7878H82.7671V61.7682H83.7866ZM83.7866 62.7878V63.8074H82.7671V62.7878H83.7866ZM83.7866 63.8074V64.827H82.7671V63.8074H83.7866ZM83.7866 64.827V65.8466H82.7671V64.827H83.7866ZM83.7866 65.8466V66.8662H82.7671V65.8466H83.7866ZM82.7671 65.8466V66.8662H81.7475V65.8466H82.7671ZM82.7671 64.827V65.8466H81.7475V64.827H82.7671ZM82.7671 63.8074V64.827H81.7475V63.8074H82.7671ZM82.7671 62.7878V63.8074H81.7475V62.7878H82.7671ZM82.7671 61.7682V62.7878H81.7475V61.7682H82.7671ZM82.7671 60.7486V61.7682H81.7475V60.7486H82.7671ZM81.7475 62.7878V63.8074H80.7279V62.7878H81.7475ZM81.7475 63.8074V64.827H80.7279V63.8074H81.7475ZM81.7475 61.7682V62.7878H80.7279V61.7682H81.7475ZM80.7279 62.7878V63.8074H79.7083V62.7878H80.7279ZM80.7279 63.8074V64.827H79.7083V63.8074H80.7279ZM79.7083 63.8074V64.827H78.6887V63.8074H79.7083ZM79.7083 64.827V65.8466H78.6887V64.827H79.7083ZM78.6887 64.827V65.8466H77.6691V64.827H78.6887ZM78.6887 65.8466V66.8662H77.6691V65.8466H78.6887ZM78.6887 66.8662V67.8857H77.6691V66.8662H78.6887ZM77.6691 66.8662V67.8857H76.6495V66.8662H77.6691ZM77.6691 67.8857V68.9053H76.6495V67.8857H77.6691ZM76.6495 67.8857V68.9053H75.6299V67.8857H76.6495ZM76.6495 68.9053V69.9249H75.6299V68.9053H76.6495ZM75.6299 68.9053V69.9249H74.6103V68.9053H75.6299ZM75.6299 69.9249V70.9445H74.6103V69.9249H75.6299ZM74.6103 69.9249V70.9445H73.5908V69.9249H74.6103ZM74.6103 70.9445V71.9641H73.5908V70.9445H74.6103ZM73.5908 70.9445V71.9641H72.5712V70.9445H73.5908ZM73.5908 69.9249V70.9445H72.5712V69.9249H73.5908ZM74.6103 68.9053V69.9249H73.5908V68.9053H74.6103ZM75.6299 67.8857V68.9053H74.6103V67.8857H75.6299ZM76.6495 66.8662V67.8857H75.6299V66.8662H76.6495ZM77.6691 65.8466V66.8662H76.6495V65.8466H77.6691ZM81.7475 65.8466V66.8662H80.7279V65.8466H81.7475ZM81.7475 66.8662V67.8857H80.7279V66.8662H81.7475ZM80.7279 66.8662V67.8857H79.7083V66.8662H80.7279ZM80.7279 67.8857V68.9053H79.7083V67.8857H80.7279ZM79.7083 67.8857V68.9053H78.6887V67.8857H79.7083ZM79.7083 68.9053V69.9249H78.6887V68.9053H79.7083ZM78.6887 69.9249V70.9445H77.6691V69.9249H78.6887ZM77.6691 70.9445V71.9641H76.6495V70.9445H77.6691ZM77.6691 71.9641V72.9837H76.6495V71.9641H77.6691ZM76.6495 71.9641V72.9837H75.6299V71.9641H76.6495ZM81.7475 64.827V65.8466H80.7279V64.827H81.7475ZM80.7279 64.827V65.8466H79.7083V64.827H80.7279ZM79.7083 65.8466V66.8662H78.6887V65.8466H79.7083ZM79.7083 66.8662V67.8857H78.6887V66.8662H79.7083ZM80.7279 65.8466V66.8662H79.7083V65.8466H80.7279ZM78.6887 67.8857V68.9053H77.6691V67.8857H78.6887ZM77.6691 68.9053V69.9249H76.6495V68.9053H77.6691ZM77.6691 69.9249V70.9445H76.6495V69.9249H77.6691ZM76.6495 69.9249V70.9445H75.6299V69.9249H76.6495ZM76.6495 70.9445V71.9641H75.6299V70.9445H76.6495ZM75.6299 70.9445V71.9641H74.6103V70.9445H75.6299ZM75.6299 71.9641V72.9837H74.6103V71.9641H75.6299ZM78.6887 68.9053V69.9249H77.6691V68.9053H78.6887ZM77.6691 72.9837V74.0033H76.6495V72.9837H77.6691ZM77.6691 74.0033V75.0229H76.6495V74.0033H77.6691ZM77.6691 75.0229V76.0425H76.6495V75.0229H77.6691ZM78.6887 75.0229V76.0425H77.6691V75.0229H78.6887ZM79.7083 75.0229V76.0425H78.6887V75.0229H79.7083ZM80.7279 75.0229V76.0425H79.7083V75.0229H80.7279ZM81.7475 75.0229V76.0425H80.7279V75.0229H81.7475ZM82.7671 75.0229V76.0425H81.7475V75.0229H82.7671ZM83.7866 75.0229V76.0425H82.7671V75.0229H83.7866ZM83.7866 74.0033V75.0229H82.7671V74.0033H83.7866ZM83.7866 72.9837V74.0033H82.7671V72.9837H83.7866ZM83.7866 71.9641V72.9837H82.7671V71.9641H83.7866ZM83.7866 70.9445V71.9641H82.7671V70.9445H83.7866ZM83.7866 69.9249V70.9445H82.7671V69.9249H83.7866ZM83.7866 68.9053V69.9249H82.7671V68.9053H83.7866ZM83.7866 67.8857V68.9053H82.7671V67.8857H83.7866ZM84.8062 67.8857V68.9053H83.7866V67.8857H84.8062ZM84.8062 66.8662V67.8857H83.7866V66.8662H84.8062ZM83.7866 66.8662V67.8857H82.7671V66.8662H83.7866ZM84.8062 59.729V60.7486H83.7866V59.729H84.8062ZM85.8258 59.729V60.7486H84.8062V59.729H85.8258ZM83.7866 59.729V60.7486H82.7671V59.729H83.7866ZM86.8454 59.729V60.7486H85.8258V59.729H86.8454ZM87.865 59.729V60.7486H86.8454V59.729H87.865ZM87.865 60.7486V61.7682H86.8454V60.7486H87.865ZM87.865 61.7682V62.7878H86.8454V61.7682H87.865ZM87.865 62.7878V63.8074H86.8454V62.7878H87.865ZM87.865 63.8074V64.827H86.8454V63.8074H87.865ZM87.865 64.827V65.8466H86.8454V64.827H87.865ZM87.865 65.8466V66.8662H86.8454V65.8466H87.865ZM87.865 66.8662V67.8857H86.8454V66.8662H87.865ZM87.865 67.8857V68.9053H86.8454V67.8857H87.865ZM87.865 68.9053V69.9249H86.8454V68.9053H87.865ZM87.865 69.9249V70.9445H86.8454V69.9249H87.865ZM87.865 70.9445V71.9641H86.8454V70.9445H87.865ZM87.865 71.9641V72.9837H86.8454V71.9641H87.865ZM87.865 72.9837V74.0033H86.8454V72.9837H87.865ZM87.865 74.0033V75.0229H86.8454V74.0033H87.865ZM87.865 75.0229V76.0425H86.8454V75.0229H87.865ZM87.865 76.0425V77.062H86.8454V76.0425H87.865ZM87.865 77.062V78.0816H86.8454V77.062H87.865ZM87.865 78.0816V79.1012H86.8454V78.0816H87.865ZM86.8454 78.0816V79.1012H85.8258V78.0816H86.8454ZM86.8454 79.1012V80.1208H85.8258V79.1012H86.8454ZM85.8258 79.1012V80.1208H84.8062V79.1012H85.8258ZM84.8062 80.1208V81.1404H83.7866V80.1208H84.8062ZM83.7866 80.1208V81.1404H82.7671V80.1208H83.7866ZM83.7866 79.1012V80.1208H82.7671V79.1012H83.7866ZM82.7671 79.1012V80.1208H81.7475V79.1012H82.7671ZM81.7475 79.1012V80.1208H80.7279V79.1012H81.7475ZM80.7279 79.1012V80.1208H79.7083V79.1012H80.7279ZM79.7083 79.1012V80.1208H78.6887V79.1012H79.7083ZM78.6887 79.1012V80.1208H77.6691V79.1012H78.6887ZM77.6691 79.1012V80.1208H76.6495V79.1012H77.6691ZM76.6495 79.1012V80.1208H75.6299V79.1012H76.6495ZM75.6299 79.1012V80.1208H74.6103V79.1012H75.6299ZM74.6103 79.1012V80.1208H73.5908V79.1012H74.6103ZM73.5908 79.1012V80.1208H72.5712V79.1012H73.5908ZM73.5908 78.0816V79.1012H72.5712V78.0816H73.5908ZM73.5908 77.062V78.0816H72.5712V77.062H73.5908ZM73.5908 76.0425V77.062H72.5712V76.0425H73.5908ZM73.5908 75.0229V76.0425H72.5712V75.0229H73.5908ZM73.5908 74.0033V75.0229H72.5712V74.0033H73.5908ZM74.6103 74.0033V75.0229H73.5908V74.0033H74.6103ZM74.6103 72.9837V74.0033H73.5908V72.9837H74.6103ZM74.6103 71.9641V72.9837H73.5908V71.9641H74.6103ZM73.5908 71.9641V72.9837H72.5712V71.9641H73.5908ZM73.5908 72.9837V74.0033H72.5712V72.9837H73.5908ZM75.6299 72.9837V74.0033H74.6103V72.9837H75.6299ZM76.6495 72.9837V74.0033H75.6299V72.9837H76.6495ZM76.6495 74.0033V75.0229H75.6299V74.0033H76.6495ZM76.6495 75.0229V76.0425H75.6299V75.0229H76.6495ZM76.6495 76.0425V77.062H75.6299V76.0425H76.6495ZM75.6299 76.0425V77.062H74.6103V76.0425H75.6299ZM75.6299 75.0229V76.0425H74.6103V75.0229H75.6299ZM75.6299 74.0033V75.0229H74.6103V74.0033H75.6299ZM74.6103 75.0229V76.0425H73.5908V75.0229H74.6103ZM74.6103 76.0425V77.062H73.5908V76.0425H74.6103ZM74.6103 77.062V78.0816H73.5908V77.062H74.6103ZM74.6103 78.0816V79.1012H73.5908V78.0816H74.6103ZM75.6299 78.0816V79.1012H74.6103V78.0816H75.6299ZM76.6495 78.0816V79.1012H75.6299V78.0816H76.6495ZM77.6691 78.0816V79.1012H76.6495V78.0816H77.6691ZM78.6887 78.0816V79.1012H77.6691V78.0816H78.6887ZM79.7083 78.0816V79.1012H78.6887V78.0816H79.7083ZM80.7279 78.0816V79.1012H79.7083V78.0816H80.7279ZM81.7475 78.0816V79.1012H80.7279V78.0816H81.7475ZM82.7671 78.0816V79.1012H81.7475V78.0816H82.7671ZM83.7866 78.0816V79.1012H82.7671V78.0816H83.7866ZM84.8062 78.0816V79.1012H83.7866V78.0816H84.8062ZM85.8258 78.0816V79.1012H84.8062V78.0816H85.8258ZM84.8062 79.1012V80.1208H83.7866V79.1012H84.8062ZM86.8454 77.062V78.0816H85.8258V77.062H86.8454ZM85.8258 77.062V78.0816H84.8062V77.062H85.8258ZM84.8062 77.062V78.0816H83.7866V77.062H84.8062ZM84.8062 76.0425V77.062H83.7866V76.0425H84.8062ZM83.7866 76.0425V77.062H82.7671V76.0425H83.7866ZM82.7671 76.0425V77.062H81.7475V76.0425H82.7671ZM81.7475 76.0425V77.062H80.7279V76.0425H81.7475ZM80.7279 76.0425V77.062H79.7083V76.0425H80.7279ZM79.7083 76.0425V77.062H78.6887V76.0425H79.7083ZM78.6887 76.0425V77.062H77.6691V76.0425H78.6887ZM77.6691 76.0425V77.062H76.6495V76.0425H77.6691ZM75.6299 77.062V78.0816H74.6103V77.062H75.6299ZM76.6495 77.062V78.0816H75.6299V77.062H76.6495ZM77.6691 77.062V78.0816H76.6495V77.062H77.6691ZM78.6887 77.062V78.0816H77.6691V77.062H78.6887ZM79.7083 77.062V78.0816H78.6887V77.062H79.7083ZM80.7279 77.062V78.0816H79.7083V77.062H80.7279ZM81.7475 77.062V78.0816H80.7279V77.062H81.7475ZM82.7671 77.062V78.0816H81.7475V77.062H82.7671ZM83.7866 77.062V78.0816H82.7671V77.062H83.7866ZM84.8062 75.0229V76.0425H83.7866V75.0229H84.8062ZM84.8062 74.0033V75.0229H83.7866V74.0033H84.8062ZM84.8062 72.9837V74.0033H83.7866V72.9837H84.8062ZM84.8062 71.9641V72.9837H83.7866V71.9641H84.8062ZM84.8062 70.9445V71.9641H83.7866V70.9445H84.8062ZM84.8062 69.9249V70.9445H83.7866V69.9249H84.8062ZM85.8258 68.9053V69.9249H84.8062V68.9053H85.8258ZM85.8258 67.8857V68.9053H84.8062V67.8857H85.8258ZM85.8258 66.8662V67.8857H84.8062V66.8662H85.8258ZM85.8258 65.8466V66.8662H84.8062V65.8466H85.8258ZM85.8258 64.827V65.8466H84.8062V64.827H85.8258ZM84.8062 64.827V65.8466H83.7866V64.827H84.8062ZM84.8062 63.8074V64.827H83.7866V63.8074H84.8062ZM84.8062 62.7878V63.8074H83.7866V62.7878H84.8062ZM84.8062 61.7682V62.7878H83.7866V61.7682H84.8062ZM84.8062 60.7486V61.7682H83.7866V60.7486H84.8062ZM85.8258 60.7486V61.7682H84.8062V60.7486H85.8258ZM86.8454 60.7486V61.7682H85.8258V60.7486H86.8454ZM86.8454 61.7682V62.7878H85.8258V61.7682H86.8454ZM86.8454 62.7878V63.8074H85.8258V62.7878H86.8454ZM86.8454 63.8074V64.827H85.8258V63.8074H86.8454ZM86.8454 64.827V65.8466H85.8258V64.827H86.8454ZM86.8454 65.8466V66.8662H85.8258V65.8466H86.8454ZM86.8454 66.8662V67.8857H85.8258V66.8662H86.8454ZM86.8454 67.8857V68.9053H85.8258V67.8857H86.8454ZM86.8454 68.9053V69.9249H85.8258V68.9053H86.8454ZM86.8454 69.9249V70.9445H85.8258V69.9249H86.8454ZM86.8454 70.9445V71.9641H85.8258V70.9445H86.8454ZM86.8454 71.9641V72.9837H85.8258V71.9641H86.8454ZM86.8454 72.9837V74.0033H85.8258V72.9837H86.8454ZM86.8454 74.0033V75.0229H85.8258V74.0033H86.8454ZM86.8454 75.0229V76.0425H85.8258V75.0229H86.8454ZM86.8454 76.0425V77.062H85.8258V76.0425H86.8454ZM85.8258 76.0425V77.062H84.8062V76.0425H85.8258ZM85.8258 75.0229V76.0425H84.8062V75.0229H85.8258ZM85.8258 74.0033V75.0229H84.8062V74.0033H85.8258ZM85.8258 71.9641V72.9837H84.8062V71.9641H85.8258ZM85.8258 72.9837V74.0033H84.8062V72.9837H85.8258ZM85.8258 69.9249V70.9445H84.8062V69.9249H85.8258ZM85.8258 70.9445V71.9641H84.8062V70.9445H85.8258ZM84.8062 65.8466V66.8662H83.7866V65.8466H84.8062ZM84.8062 68.9053V69.9249H83.7866V68.9053H84.8062ZM85.8258 63.8074V64.827H84.8062V63.8074H85.8258ZM85.8258 62.7878V63.8074H84.8062V62.7878H85.8258ZM85.8258 61.7682V62.7878H84.8062V61.7682H85.8258ZM83.7866 81.1404V82.16H82.7671V81.1404H83.7866ZM83.7866 82.16V83.1796H82.7671V82.16H83.7866ZM83.7866 83.1796V84.1992H82.7671V83.1796H83.7866ZM83.7866 84.1992V85.2188H82.7671V84.1992H83.7866ZM84.8062 84.1992V85.2188H83.7866V84.1992H84.8062ZM85.8258 84.1992V85.2188H84.8062V84.1992H85.8258ZM86.8454 84.1992V85.2188H85.8258V84.1992H86.8454ZM87.865 83.1796V84.1992H86.8454V83.1796H87.865ZM87.865 82.16V83.1796H86.8454V82.16H87.865ZM87.865 84.1992V85.2188H86.8454V84.1992H87.865ZM87.865 81.1404V82.16H86.8454V81.1404H87.865ZM87.865 80.1208V81.1404H86.8454V80.1208H87.865ZM87.865 79.1012V80.1208H86.8454V79.1012H87.865ZM86.8454 80.1208V81.1404H85.8258V80.1208H86.8454ZM86.8454 81.1404V82.16H85.8258V81.1404H86.8454ZM85.8258 81.1404V82.16H84.8062V81.1404H85.8258ZM85.8258 82.16V83.1796H84.8062V82.16H85.8258ZM85.8258 83.1796V84.1992H84.8062V83.1796H85.8258ZM86.8454 83.1796V84.1992H85.8258V83.1796H86.8454ZM86.8454 82.16V83.1796H85.8258V82.16H86.8454ZM84.8062 83.1796V84.1992H83.7866V83.1796H84.8062ZM85.8258 80.1208V81.1404H84.8062V80.1208H85.8258ZM84.8062 82.16V83.1796H83.7866V82.16H84.8062ZM84.8062 81.1404V82.16H83.7866V81.1404H84.8062Z" fill="black"/>
<path d="M3.35292 35.9168V36.9363H2.33333V35.9168H3.35292ZM3.35292 36.9363V37.9559H2.33333V36.9363H3.35292ZM3.35292 37.9559V38.9755H2.33333V37.9559H3.35292ZM4.37251 37.9559V38.9755H3.35292V37.9559H4.37251ZM5.3921 37.9559V38.9755H4.37251V37.9559H5.3921ZM6.41169 37.9559V38.9755H5.3921V37.9559H6.41169ZM7.43128 37.9559V38.9755H6.41169V37.9559H7.43128ZM7.43128 36.9363V37.9559H6.41169V36.9363H7.43128ZM8.45087 36.9363V37.9559H7.43128V36.9363H8.45087ZM8.45087 35.9168V36.9363H7.43128V35.9168H8.45087ZM9.47045 35.9168V36.9363H8.45087V35.9168H9.47045ZM10.49 35.9168V36.9363H9.47045V35.9168H10.49ZM11.5096 35.9168V36.9363H10.49V35.9168H11.5096ZM12.5292 35.9168V36.9363H11.5096V35.9168H12.5292ZM13.5488 35.9168V36.9363H12.5292V35.9168H13.5488ZM13.5488 36.9363V37.9559H12.5292V36.9363H13.5488ZM14.5684 36.9363V37.9559H13.5488V36.9363H14.5684ZM14.5684 37.9559V38.9755H13.5488V37.9559H14.5684ZM14.5684 38.9755V39.9951H13.5488V38.9755H14.5684ZM14.5684 39.9951V41.0147H13.5488V39.9951H14.5684ZM14.5684 41.0147V42.0343H13.5488V41.0147H14.5684ZM13.5488 41.0147V42.0343H12.5292V41.0147H13.5488ZM13.5488 42.0343V43.0539H12.5292V42.0343H13.5488ZM12.5292 42.0343V43.0539H11.5096V42.0343H12.5292ZM11.5096 42.0343V43.0539H10.49V42.0343H11.5096ZM10.49 42.0343V43.0539H9.47045V42.0343H10.49ZM9.47045 42.0343V43.0539H8.45087V42.0343H9.47045ZM8.45087 42.0343V43.0539H7.43128V42.0343H8.45087ZM8.45087 43.0539V44.0735H7.43128V43.0539H8.45087ZM8.45087 44.0735V45.0931H7.43128V44.0735H8.45087ZM8.45087 45.0931V46.1126H7.43128V45.0931H8.45087ZM9.47045 45.0931V46.1126H8.45087V45.0931H9.47045ZM10.49 45.0931V46.1126H9.47045V45.0931H10.49ZM11.5096 45.0931V46.1126H10.49V45.0931H11.5096ZM12.5292 45.0931V46.1126H11.5096V45.0931H12.5292ZM12.5292 44.0735V45.0931H11.5096V44.0735H12.5292ZM13.5488 44.0735V45.0931H12.5292V44.0735H13.5488ZM13.5488 43.0539V44.0735H12.5292V43.0539H13.5488ZM12.5292 43.0539V44.0735H11.5096V43.0539H12.5292ZM11.5096 43.0539V44.0735H10.49V43.0539H11.5096ZM10.49 43.0539V44.0735H9.47045V43.0539H10.49ZM9.47045 43.0539V44.0735H8.45087V43.0539H9.47045ZM9.47045 44.0735V45.0931H8.45087V44.0735H9.47045ZM10.49 44.0735V45.0931H9.47045V44.0735H10.49ZM11.5096 44.0735V45.0931H10.49V44.0735H11.5096ZM14.5684 42.0343V43.0539H13.5488V42.0343H14.5684ZM14.5684 43.0539V44.0735H13.5488V43.0539H14.5684ZM14.5684 44.0735V45.0931H13.5488V44.0735H14.5684ZM14.5684 45.0931V46.1126H13.5488V45.0931H14.5684ZM14.5684 46.1126V47.1322H13.5488V46.1126H14.5684ZM13.5488 46.1126V47.1322H12.5292V46.1126H13.5488ZM13.5488 45.0931V46.1126H12.5292V45.0931H13.5488ZM18.6468 46.1126V47.1322H17.6272V46.1126H18.6468ZM17.6272 46.1126V47.1322H16.6076V46.1126H17.6272ZM16.6076 46.1126V47.1322H15.588V46.1126H16.6076ZM15.588 46.1126V47.1322H14.5684V46.1126H15.588ZM15.588 45.0931V46.1126H14.5684V45.0931H15.588ZM16.6076 45.0931V46.1126H15.588V45.0931H16.6076ZM17.6272 45.0931V46.1126H16.6076V45.0931H17.6272ZM16.6076 44.0735V45.0931H15.588V44.0735H16.6076ZM16.6076 43.0539V44.0735H15.588V43.0539H16.6076ZM16.6076 42.0343V43.0539H15.588V42.0343H16.6076ZM15.588 43.0539V44.0735H14.5684V43.0539H15.588ZM15.588 44.0735V45.0931H14.5684V44.0735H15.588ZM15.588 42.0343V43.0539H14.5684V42.0343H15.588ZM17.6272 42.0343V43.0539H16.6076V42.0343H17.6272ZM17.6272 41.0147V42.0343H16.6076V41.0147H17.6272ZM18.6468 41.0147V42.0343H17.6272V41.0147H18.6468ZM18.6468 39.9951V41.0147H17.6272V39.9951H18.6468ZM18.6468 38.9755V39.9951H17.6272V38.9755H18.6468ZM18.6468 37.9559V38.9755H17.6272V37.9559H18.6468ZM18.6468 36.9363V37.9559H17.6272V36.9363H18.6468ZM18.6468 35.9168V36.9363H17.6272V35.9168H18.6468ZM17.6272 35.9168V36.9363H16.6076V35.9168H17.6272ZM17.6272 34.8972V35.9168H16.6076V34.8972H17.6272ZM17.6272 33.8776V34.8972H16.6076V33.8776H17.6272ZM16.6076 33.8776V34.8972H15.588V33.8776H16.6076ZM15.588 33.8776V34.8972H14.5684V33.8776H15.588ZM15.588 32.858V33.8776H14.5684V32.858H15.588ZM16.6076 32.858V33.8776H15.588V32.858H16.6076ZM14.5684 33.8776V34.8972H13.5488V33.8776H14.5684ZM14.5684 32.858V33.8776H13.5488V32.858H14.5684ZM14.5684 31.8384V32.858H13.5488V31.8384H14.5684ZM13.5488 31.8384V32.858H12.5292V31.8384H13.5488ZM12.5292 31.8384V32.858H11.5096V31.8384H12.5292ZM11.5096 31.8384V32.858H10.49V31.8384H11.5096ZM10.49 31.8384V32.858H9.47045V31.8384H10.49ZM9.47045 31.8384V32.858H8.45087V31.8384H9.47045ZM8.45087 31.8384V32.858H7.43128V31.8384H8.45087ZM7.43128 31.8384V32.858H6.41169V31.8384H7.43128ZM7.43128 32.858V33.8776H6.41169V32.858H7.43128ZM6.41169 32.858V33.8776H5.3921V32.858H6.41169ZM5.3921 32.858V33.8776H4.37251V32.858H5.3921ZM5.3921 33.8776V34.8972H4.37251V33.8776H5.3921ZM4.37251 33.8776V34.8972H3.35292V33.8776H4.37251ZM4.37251 34.8972V35.9168H3.35292V34.8972H4.37251ZM4.37251 35.9168V36.9363H3.35292V35.9168H4.37251ZM4.37251 36.9363V37.9559H3.35292V36.9363H4.37251ZM5.3921 36.9363V37.9559H4.37251V36.9363H5.3921ZM6.41169 36.9363V37.9559H5.3921V36.9363H6.41169ZM6.41169 35.9168V36.9363H5.3921V35.9168H6.41169ZM7.43128 35.9168V36.9363H6.41169V35.9168H7.43128ZM6.41169 34.8972V35.9168H5.3921V34.8972H6.41169ZM5.3921 34.8972V35.9168H4.37251V34.8972H5.3921ZM5.3921 35.9168V36.9363H4.37251V35.9168H5.3921ZM7.43128 34.8972V35.9168H6.41169V34.8972H7.43128ZM6.41169 33.8776V34.8972H5.3921V33.8776H6.41169ZM7.43128 33.8776V34.8972H6.41169V33.8776H7.43128ZM8.45087 33.8776V34.8972H7.43128V33.8776H8.45087ZM9.47045 33.8776V34.8972H8.45087V33.8776H9.47045ZM9.47045 34.8972V35.9168H8.45087V34.8972H9.47045ZM8.45087 34.8972V35.9168H7.43128V34.8972H8.45087ZM10.49 34.8972V35.9168H9.47045V34.8972H10.49ZM11.5096 34.8972V35.9168H10.49V34.8972H11.5096ZM12.5292 34.8972V35.9168H11.5096V34.8972H12.5292ZM13.5488 34.8972V35.9168H12.5292V34.8972H13.5488ZM14.5684 34.8972V35.9168H13.5488V34.8972H14.5684ZM15.588 34.8972V35.9168H14.5684V34.8972H15.588ZM16.6076 34.8972V35.9168H15.588V34.8972H16.6076ZM16.6076 35.9168V36.9363H15.588V35.9168H16.6076ZM15.588 35.9168V36.9363H14.5684V35.9168H15.588ZM15.588 36.9363V37.9559H14.5684V36.9363H15.588ZM14.5684 35.9168V36.9363H13.5488V35.9168H14.5684ZM16.6076 36.9363V37.9559H15.588V36.9363H16.6076ZM17.6272 36.9363V37.9559H16.6076V36.9363H17.6272ZM17.6272 37.9559V38.9755H16.6076V37.9559H17.6272ZM17.6272 38.9755V39.9951H16.6076V38.9755H17.6272ZM17.6272 39.9951V41.0147H16.6076V39.9951H17.6272ZM16.6076 39.9951V41.0147H15.588V39.9951H16.6076ZM16.6076 41.0147V42.0343H15.588V41.0147H16.6076ZM16.6076 38.9755V39.9951H15.588V38.9755H16.6076ZM16.6076 37.9559V38.9755H15.588V37.9559H16.6076ZM15.588 37.9559V38.9755H14.5684V37.9559H15.588ZM15.588 38.9755V39.9951H14.5684V38.9755H15.588ZM15.588 39.9951V41.0147H14.5684V39.9951H15.588ZM15.588 41.0147V42.0343H14.5684V41.0147H15.588ZM13.5488 33.8776V34.8972H12.5292V33.8776H13.5488ZM12.5292 33.8776V34.8972H11.5096V33.8776H12.5292ZM11.5096 33.8776V34.8972H10.49V33.8776H11.5096ZM10.49 33.8776V34.8972H9.47045V33.8776H10.49ZM9.47045 32.858V33.8776H8.45087V32.858H9.47045ZM8.45087 32.858V33.8776H7.43128V32.858H8.45087ZM10.49 32.858V33.8776H9.47045V32.858H10.49ZM11.5096 32.858V33.8776H10.49V32.858H11.5096ZM12.5292 32.858V33.8776H11.5096V32.858H12.5292ZM13.5488 32.858V33.8776H12.5292V32.858H13.5488ZM3.35292 50.191V51.2106H2.33333V50.191H3.35292ZM4.37251 50.191V51.2106H3.35292V50.191H4.37251ZM5.3921 50.191V51.2106H4.37251V50.191H5.3921ZM6.41169 50.191V51.2106H5.3921V50.191H6.41169ZM7.43128 50.191V51.2106H6.41169V50.191H7.43128ZM7.43128 51.2106V52.2302H6.41169V51.2106H7.43128ZM8.45087 51.2106V52.2302H7.43128V51.2106H8.45087ZM3.35292 51.2106V52.2302H2.33333V51.2106H3.35292ZM3.35292 52.2302V53.2498H2.33333V52.2302H3.35292ZM4.37251 52.2302V53.2498H3.35292V52.2302H4.37251ZM5.3921 52.2302V53.2498H4.37251V52.2302H5.3921ZM6.41169 52.2302V53.2498H5.3921V52.2302H6.41169ZM7.43128 52.2302V53.2498H6.41169V52.2302H7.43128ZM8.45087 52.2302V53.2498H7.43128V52.2302H8.45087ZM6.41169 51.2106V52.2302H5.3921V51.2106H6.41169ZM5.3921 51.2106V52.2302H4.37251V51.2106H5.3921ZM4.37251 51.2106V52.2302H3.35292V51.2106H4.37251ZM5.3921 53.2498V54.2694H4.37251V53.2498H5.3921ZM4.37251 53.2498V54.2694H3.35292V53.2498H4.37251ZM4.37251 54.2694V55.2889H3.35292V54.2694H4.37251ZM5.3921 54.2694V55.2889H4.37251V54.2694H5.3921ZM5.3921 55.2889V56.3085H4.37251V55.2889H5.3921ZM6.41169 55.2889V56.3085H5.3921V55.2889H6.41169ZM7.43128 55.2889V56.3085H6.41169V55.2889H7.43128ZM7.43128 56.3085V57.3281H6.41169V56.3085H7.43128ZM8.45087 56.3085V57.3281H7.43128V56.3085H8.45087ZM8.45087 55.2889V56.3085H7.43128V55.2889H8.45087ZM9.47045 55.2889V56.3085H8.45087V55.2889H9.47045ZM9.47045 54.2694V55.2889H8.45087V54.2694H9.47045ZM9.47045 53.2498V54.2694H8.45087V53.2498H9.47045ZM8.45087 53.2498V54.2694H7.43128V53.2498H8.45087ZM7.43128 53.2498V54.2694H6.41169V53.2498H7.43128ZM6.41169 53.2498V54.2694H5.3921V53.2498H6.41169ZM6.41169 54.2694V55.2889H5.3921V54.2694H6.41169ZM7.43128 54.2694V55.2889H6.41169V54.2694H7.43128ZM8.45087 54.2694V55.2889H7.43128V54.2694H8.45087ZM9.47045 56.3085V57.3281H8.45087V56.3085H9.47045ZM10.49 56.3085V57.3281H9.47045V56.3085H10.49ZM11.5096 56.3085V57.3281H10.49V56.3085H11.5096ZM12.5292 56.3085V57.3281H11.5096V56.3085H12.5292ZM13.5488 56.3085V57.3281H12.5292V56.3085H13.5488ZM14.5684 56.3085V57.3281H13.5488V56.3085H14.5684ZM14.5684 55.2889V56.3085H13.5488V55.2889H14.5684ZM15.588 55.2889V56.3085H14.5684V55.2889H15.588ZM16.6076 55.2889V56.3085H15.588V55.2889H16.6076ZM16.6076 54.2694V55.2889H15.588V54.2694H16.6076ZM17.6272 54.2694V55.2889H16.6076V54.2694H17.6272ZM17.6272 53.2498V54.2694H16.6076V53.2498H17.6272ZM17.6272 52.2302V53.2498H16.6076V52.2302H17.6272ZM18.6468 52.2302V53.2498H17.6272V52.2302H18.6468ZM18.6468 51.2106V52.2302H17.6272V51.2106H18.6468ZM18.6468 50.191V51.2106H17.6272V50.191H18.6468ZM18.6468 49.1714V50.191H17.6272V49.1714H18.6468ZM18.6468 48.1518V49.1714H17.6272V48.1518H18.6468ZM18.6468 47.1322V48.1518H17.6272V47.1322H18.6468ZM17.6272 47.1322V48.1518H16.6076V47.1322H17.6272ZM16.6076 47.1322V48.1518H15.588V47.1322H16.6076ZM16.6076 48.1518V49.1714H15.588V48.1518H16.6076ZM15.588 48.1518V49.1714H14.5684V48.1518H15.588ZM15.588 47.1322V48.1518H14.5684V47.1322H15.588ZM14.5684 47.1322V48.1518H13.5488V47.1322H14.5684ZM14.5684 48.1518V49.1714H13.5488V48.1518H14.5684ZM14.5684 49.1714V50.191H13.5488V49.1714H14.5684ZM14.5684 50.191V51.2106H13.5488V50.191H14.5684ZM14.5684 51.2106V52.2302H13.5488V51.2106H14.5684ZM13.5488 51.2106V52.2302H12.5292V51.2106H13.5488ZM13.5488 52.2302V53.2498H12.5292V52.2302H13.5488ZM12.5292 52.2302V53.2498H11.5096V52.2302H12.5292ZM11.5096 52.2302V53.2498H10.49V52.2302H11.5096ZM10.49 52.2302V53.2498H9.47045V52.2302H10.49ZM9.47045 52.2302V53.2498H8.45087V52.2302H9.47045ZM10.49 53.2498V54.2694H9.47045V53.2498H10.49ZM10.49 54.2694V55.2889H9.47045V54.2694H10.49ZM11.5096 54.2694V55.2889H10.49V54.2694H11.5096ZM11.5096 55.2889V56.3085H10.49V55.2889H11.5096ZM12.5292 55.2889V56.3085H11.5096V55.2889H12.5292ZM13.5488 55.2889V56.3085H12.5292V55.2889H13.5488ZM10.49 55.2889V56.3085H9.47045V55.2889H10.49ZM11.5096 53.2498V54.2694H10.49V53.2498H11.5096ZM12.5292 53.2498V54.2694H11.5096V53.2498H12.5292ZM13.5488 53.2498V54.2694H12.5292V53.2498H13.5488ZM14.5684 54.2694V55.2889H13.5488V54.2694H14.5684ZM15.588 54.2694V55.2889H14.5684V54.2694H15.588ZM13.5488 54.2694V55.2889H12.5292V54.2694H13.5488ZM12.5292 54.2694V55.2889H11.5096V54.2694H12.5292ZM14.5684 53.2498V54.2694H13.5488V53.2498H14.5684ZM15.588 53.2498V54.2694H14.5684V53.2498H15.588ZM16.6076 53.2498V54.2694H15.588V53.2498H16.6076ZM15.588 52.2302V53.2498H14.5684V52.2302H15.588ZM14.5684 52.2302V53.2498H13.5488V52.2302H14.5684ZM16.6076 51.2106V52.2302H15.588V51.2106H16.6076ZM17.6272 50.191V51.2106H16.6076V50.191H17.6272ZM17.6272 49.1714V50.191H16.6076V49.1714H17.6272ZM17.6272 48.1518V49.1714H16.6076V48.1518H17.6272ZM16.6076 49.1714V50.191H15.588V49.1714H16.6076ZM15.588 50.191V51.2106H14.5684V50.191H15.588ZM15.588 51.2106V52.2302H14.5684V51.2106H15.588ZM16.6076 50.191V51.2106H15.588V50.191H16.6076ZM17.6272 51.2106V52.2302H16.6076V51.2106H17.6272ZM16.6076 52.2302V53.2498H15.588V52.2302H16.6076ZM15.588 49.1714V50.191H14.5684V49.1714H15.588Z" fill="black"/>
<line x1="65.8163" y1="46.5297" x2="97.1737" y2="46.5641" stroke="black" stroke-width="2.40927"/>
</svg>
